ISO-10303-21;
HEADER;
/* Generated by software containing ST-Developer
 * from STEP Tools, Inc. (www.steptools.com) 
 */

FILE_DESCRIPTION(
/* description */ (''),
/* implementation_level */ '2;1');

FILE_NAME(
/* name */ 'hydropad_bottom.step',
/* time_stamp */ '2026-06-05T00:09:00+09:00',
/* author */ (''),
/* organization */ (''),
/* preprocessor_version */ 'ST-DEVELOPER v20.1',
/* originating_system */ 'Autodesk Translation Framework v15.8.0.0',
/* authorisation */ '');

FILE_SCHEMA (('AUTOMOTIVE_DESIGN { 1 0 10303 214 3 1 1 }'));
ENDSEC;

DATA;
#10=MECHANICAL_DESIGN_GEOMETRIC_PRESENTATION_REPRESENTATION('',(#13),#2010);
#11=SHAPE_REPRESENTATION_RELATIONSHIP('SRR','None',#2017,#12);
#12=ADVANCED_BREP_SHAPE_REPRESENTATION('',(#14),#2009);
#13=STYLED_ITEM('',(#2026),#14);
#14=MANIFOLD_SOLID_BREP('Body7',#1150);
#15=SPHERICAL_SURFACE('',#1263,2.);
#16=SPHERICAL_SURFACE('',#1266,2.);
#17=SPHERICAL_SURFACE('',#1271,1.99999999999999);
#18=SPHERICAL_SURFACE('',#1275,2.);
#19=TOROIDAL_SURFACE('',#1208,4.5,0.5);
#20=TOROIDAL_SURFACE('',#1215,4.5,0.5);
#21=TOROIDAL_SURFACE('',#1221,4.49999999999999,0.5);
#22=TOROIDAL_SURFACE('',#1227,4.50000000000002,0.5);
#23=FACE_BOUND('',#138,.T.);
#24=FACE_BOUND('',#139,.T.);
#25=FACE_BOUND('',#161,.T.);
#26=FACE_BOUND('',#162,.T.);
#27=FACE_BOUND('',#195,.T.);
#28=FACE_BOUND('',#196,.T.);
#29=FACE_BOUND('',#197,.T.);
#30=FACE_BOUND('',#198,.T.);
#31=FACE_BOUND('',#199,.T.);
#32=FACE_BOUND('',#202,.T.);
#33=B_SPLINE_CURVE_WITH_KNOTS('',3,(#1696,#1697,#1698,#1699,#1700,#1701),
 .UNSPECIFIED.,.F.,.F.,(4,2,4),(0.321412055295951,0.387178006606293,0.467071686183705),
 .UNSPECIFIED.);
#34=B_SPLINE_CURVE_WITH_KNOTS('',3,(#1776,#1777,#1778,#1779,#1780,#1781),
 .UNSPECIFIED.,.F.,.F.,(4,2,4),(0.,0.0798936795774114,0.145659630887754),
 .UNSPECIFIED.);
#35=PLANE('',#1167);
#36=PLANE('',#1171);
#37=PLANE('',#1175);
#38=PLANE('',#1179);
#39=PLANE('',#1182);
#40=PLANE('',#1194);
#41=PLANE('',#1200);
#42=PLANE('',#1205);
#43=PLANE('',#1232);
#44=PLANE('',#1235);
#45=PLANE('',#1238);
#46=PLANE('',#1248);
#47=PLANE('',#1250);
#48=PLANE('',#1252);
#49=PLANE('',#1254);
#50=PLANE('',#1256);
#51=PLANE('',#1258);
#52=PLANE('',#1260);
#53=PLANE('',#1262);
#54=PLANE('',#1288);
#55=PLANE('',#1289);
#56=PLANE('',#1290);
#57=PLANE('',#1291);
#58=PLANE('',#1292);
#59=PLANE('',#1296);
#60=PLANE('',#1298);
#61=FACE_OUTER_BOUND('',#128,.T.);
#62=FACE_OUTER_BOUND('',#129,.T.);
#63=FACE_OUTER_BOUND('',#130,.T.);
#64=FACE_OUTER_BOUND('',#131,.T.);
#65=FACE_OUTER_BOUND('',#132,.T.);
#66=FACE_OUTER_BOUND('',#133,.T.);
#67=FACE_OUTER_BOUND('',#134,.T.);
#68=FACE_OUTER_BOUND('',#135,.T.);
#69=FACE_OUTER_BOUND('',#136,.T.);
#70=FACE_OUTER_BOUND('',#137,.T.);
#71=FACE_OUTER_BOUND('',#140,.T.);
#72=FACE_OUTER_BOUND('',#141,.T.);
#73=FACE_OUTER_BOUND('',#142,.T.);
#74=FACE_OUTER_BOUND('',#143,.T.);
#75=FACE_OUTER_BOUND('',#144,.T.);
#76=FACE_OUTER_BOUND('',#145,.T.);
#77=FACE_OUTER_BOUND('',#146,.T.);
#78=FACE_OUTER_BOUND('',#147,.T.);
#79=FACE_OUTER_BOUND('',#148,.T.);
#80=FACE_OUTER_BOUND('',#149,.T.);
#81=FACE_OUTER_BOUND('',#150,.T.);
#82=FACE_OUTER_BOUND('',#151,.T.);
#83=FACE_OUTER_BOUND('',#152,.T.);
#84=FACE_OUTER_BOUND('',#153,.T.);
#85=FACE_OUTER_BOUND('',#154,.T.);
#86=FACE_OUTER_BOUND('',#155,.T.);
#87=FACE_OUTER_BOUND('',#156,.T.);
#88=FACE_OUTER_BOUND('',#157,.T.);
#89=FACE_OUTER_BOUND('',#158,.T.);
#90=FACE_OUTER_BOUND('',#159,.T.);
#91=FACE_OUTER_BOUND('',#160,.T.);
#92=FACE_OUTER_BOUND('',#163,.T.);
#93=FACE_OUTER_BOUND('',#164,.T.);
#94=FACE_OUTER_BOUND('',#165,.T.);
#95=FACE_OUTER_BOUND('',#166,.T.);
#96=FACE_OUTER_BOUND('',#167,.T.);
#97=FACE_OUTER_BOUND('',#168,.T.);
#98=FACE_OUTER_BOUND('',#169,.T.);
#99=FACE_OUTER_BOUND('',#170,.T.);
#100=FACE_OUTER_BOUND('',#171,.T.);
#101=FACE_OUTER_BOUND('',#172,.T.);
#102=FACE_OUTER_BOUND('',#173,.T.);
#103=FACE_OUTER_BOUND('',#174,.T.);
#104=FACE_OUTER_BOUND('',#175,.T.);
#105=FACE_OUTER_BOUND('',#176,.T.);
#106=FACE_OUTER_BOUND('',#177,.T.);
#107=FACE_OUTER_BOUND('',#178,.T.);
#108=FACE_OUTER_BOUND('',#179,.T.);
#109=FACE_OUTER_BOUND('',#180,.T.);
#110=FACE_OUTER_BOUND('',#181,.T.);
#111=FACE_OUTER_BOUND('',#182,.T.);
#112=FACE_OUTER_BOUND('',#183,.T.);
#113=FACE_OUTER_BOUND('',#184,.T.);
#114=FACE_OUTER_BOUND('',#185,.T.);
#115=FACE_OUTER_BOUND('',#186,.T.);
#116=FACE_OUTER_BOUND('',#187,.T.);
#117=FACE_OUTER_BOUND('',#188,.T.);
#118=FACE_OUTER_BOUND('',#189,.T.);
#119=FACE_OUTER_BOUND('',#190,.T.);
#120=FACE_OUTER_BOUND('',#191,.T.);
#121=FACE_OUTER_BOUND('',#192,.T.);
#122=FACE_OUTER_BOUND('',#193,.T.);
#123=FACE_OUTER_BOUND('',#194,.T.);
#124=FACE_OUTER_BOUND('',#200,.T.);
#125=FACE_OUTER_BOUND('',#201,.T.);
#126=FACE_OUTER_BOUND('',#203,.T.);
#127=FACE_OUTER_BOUND('',#204,.T.);
#128=EDGE_LOOP('',(#724,#725,#726,#727));
#129=EDGE_LOOP('',(#728));
#130=EDGE_LOOP('',(#729,#730,#731,#732));
#131=EDGE_LOOP('',(#733));
#132=EDGE_LOOP('',(#734,#735,#736,#737));
#133=EDGE_LOOP('',(#738));
#134=EDGE_LOOP('',(#739,#740,#741,#742));
#135=EDGE_LOOP('',(#743));
#136=EDGE_LOOP('',(#744,#745,#746,#747));
#137=EDGE_LOOP('',(#748,#749,#750,#751,#752,#753,#754,#755));
#138=EDGE_LOOP('',(#756,#757,#758,#759,#760,#761,#762,#763));
#139=EDGE_LOOP('',(#764,#765,#766,#767,#768,#769,#770,#771));
#140=EDGE_LOOP('',(#772,#773,#774,#775));
#141=EDGE_LOOP('',(#776,#777,#778,#779));
#142=EDGE_LOOP('',(#780,#781,#782,#783));
#143=EDGE_LOOP('',(#784,#785,#786,#787));
#144=EDGE_LOOP('',(#788,#789,#790,#791,#792));
#145=EDGE_LOOP('',(#793,#794,#795,#796,#797));
#146=EDGE_LOOP('',(#798,#799,#800,#801,#802));
#147=EDGE_LOOP('',(#803,#804,#805,#806,#807));
#148=EDGE_LOOP('',(#808,#809,#810,#811));
#149=EDGE_LOOP('',(#812,#813,#814,#815));
#150=EDGE_LOOP('',(#816,#817,#818,#819));
#151=EDGE_LOOP('',(#820,#821,#822,#823));
#152=EDGE_LOOP('',(#824,#825,#826,#827));
#153=EDGE_LOOP('',(#828,#829,#830,#831));
#154=EDGE_LOOP('',(#832,#833,#834,#835));
#155=EDGE_LOOP('',(#836,#837,#838,#839));
#156=EDGE_LOOP('',(#840,#841,#842,#843));
#157=EDGE_LOOP('',(#844,#845,#846,#847));
#158=EDGE_LOOP('',(#848,#849,#850,#851));
#159=EDGE_LOOP('',(#852,#853,#854,#855));
#160=EDGE_LOOP('',(#856,#857,#858,#859,#860,#861,#862,#863));
#161=EDGE_LOOP('',(#864,#865,#866,#867,#868,#869,#870,#871));
#162=EDGE_LOOP('',(#872,#873,#874,#875,#876,#877,#878,#879));
#163=EDGE_LOOP('',(#880,#881,#882,#883));
#164=EDGE_LOOP('',(#884,#885,#886,#887));
#165=EDGE_LOOP('',(#888,#889,#890,#891));
#166=EDGE_LOOP('',(#892,#893,#894,#895));
#167=EDGE_LOOP('',(#896,#897,#898,#899));
#168=EDGE_LOOP('',(#900,#901,#902,#903));
#169=EDGE_LOOP('',(#904,#905,#906,#907));
#170=EDGE_LOOP('',(#908,#909,#910,#911));
#171=EDGE_LOOP('',(#912,#913,#914,#915));
#172=EDGE_LOOP('',(#916,#917,#918,#919));
#173=EDGE_LOOP('',(#920,#921,#922,#923));
#174=EDGE_LOOP('',(#924,#925,#926,#927));
#175=EDGE_LOOP('',(#928,#929,#930,#931));
#176=EDGE_LOOP('',(#932,#933,#934,#935));
#177=EDGE_LOOP('',(#936,#937,#938,#939));
#178=EDGE_LOOP('',(#940,#941,#942,#943));
#179=EDGE_LOOP('',(#944,#945,#946));
#180=EDGE_LOOP('',(#947,#948,#949));
#181=EDGE_LOOP('',(#950,#951,#952,#953));
#182=EDGE_LOOP('',(#954,#955,#956));
#183=EDGE_LOOP('',(#957,#958,#959));
#184=EDGE_LOOP('',(#960,#961,#962,#963));
#185=EDGE_LOOP('',(#964,#965,#966,#967));
#186=EDGE_LOOP('',(#968,#969,#970,#971));
#187=EDGE_LOOP('',(#972,#973,#974,#975));
#188=EDGE_LOOP('',(#976,#977,#978,#979));
#189=EDGE_LOOP('',(#980,#981,#982,#983));
#190=EDGE_LOOP('',(#984,#985,#986,#987));
#191=EDGE_LOOP('',(#988,#989,#990,#991));
#192=EDGE_LOOP('',(#992,#993,#994,#995));
#193=EDGE_LOOP('',(#996,#997,#998,#999,#1000,#1001,#1002,#1003,#1004,#1005));
#194=EDGE_LOOP('',(#1006,#1007,#1008,#1009,#1010,#1011,#1012,#1013));
#195=EDGE_LOOP('',(#1014));
#196=EDGE_LOOP('',(#1015));
#197=EDGE_LOOP('',(#1016));
#198=EDGE_LOOP('',(#1017));
#199=EDGE_LOOP('',(#1018,#1019,#1020,#1021,#1022,#1023,#1024,#1025));
#200=EDGE_LOOP('',(#1026,#1027,#1028,#1029));
#201=EDGE_LOOP('',(#1030,#1031,#1032,#1033));
#202=EDGE_LOOP('',(#1034,#1035,#1036,#1037,#1038,#1039,#1040,#1041));
#203=EDGE_LOOP('',(#1042,#1043,#1044,#1045));
#204=EDGE_LOOP('',(#1046,#1047,#1048,#1049));
#205=LINE('',#1669,#298);
#206=LINE('',#1676,#299);
#207=LINE('',#1683,#300);
#208=LINE('',#1690,#301);
#209=LINE('',#1703,#302);
#210=LINE('',#1706,#303);
#211=LINE('',#1709,#304);
#212=LINE('',#1711,#305);
#213=LINE('',#1713,#306);
#214=LINE('',#1715,#307);
#215=LINE('',#1717,#308);
#216=LINE('',#1719,#309);
#217=LINE('',#1720,#310);
#218=LINE('',#1723,#311);
#219=LINE('',#1727,#312);
#220=LINE('',#1731,#313);
#221=LINE('',#1735,#314);
#222=LINE('',#1739,#315);
#223=LINE('',#1743,#316);
#224=LINE('',#1747,#317);
#225=LINE('',#1751,#318);
#226=LINE('',#1758,#319);
#227=LINE('',#1761,#320);
#228=LINE('',#1764,#321);
#229=LINE('',#1766,#322);
#230=LINE('',#1767,#323);
#231=LINE('',#1773,#324);
#232=LINE('',#1783,#325);
#233=LINE('',#1786,#326);
#234=LINE('',#1789,#327);
#235=LINE('',#1794,#328);
#236=LINE('',#1797,#329);
#237=LINE('',#1798,#330);
#238=LINE('',#1802,#331);
#239=LINE('',#1816,#332);
#240=LINE('',#1817,#333);
#241=LINE('',#1828,#334);
#242=LINE('',#1829,#335);
#243=LINE('',#1840,#336);
#244=LINE('',#1841,#337);
#245=LINE('',#1849,#338);
#246=LINE('',#1850,#339);
#247=LINE('',#1853,#340);
#248=LINE('',#1855,#341);
#249=LINE('',#1856,#342);
#250=LINE('',#1859,#343);
#251=LINE('',#1863,#344);
#252=LINE('',#1864,#345);
#253=LINE('',#1867,#346);
#254=LINE('',#1874,#347);
#255=LINE('',#1878,#348);
#256=LINE('',#1882,#349);
#257=LINE('',#1885,#350);
#258=LINE('',#1890,#351);
#259=LINE('',#1894,#352);
#260=LINE('',#1898,#353);
#261=LINE('',#1901,#354);
#262=LINE('',#1903,#355);
#263=LINE('',#1904,#356);
#264=LINE('',#1906,#357);
#265=LINE('',#1908,#358);
#266=LINE('',#1909,#359);
#267=LINE('',#1911,#360);
#268=LINE('',#1913,#361);
#269=LINE('',#1916,#362);
#270=LINE('',#1919,#363);
#271=LINE('',#1920,#364);
#272=LINE('',#1922,#365);
#273=LINE('',#1924,#366);
#274=LINE('',#1925,#367);
#275=LINE('',#1928,#368);
#276=LINE('',#1930,#369);
#277=LINE('',#1932,#370);
#278=LINE('',#1946,#371);
#279=LINE('',#1947,#372);
#280=LINE('',#1961,#373);
#281=LINE('',#1966,#374);
#282=LINE('',#1967,#375);
#283=LINE('',#1969,#376);
#284=LINE('',#1974,#377);
#285=LINE('',#1975,#378);
#286=LINE('',#1977,#379);
#287=LINE('',#1982,#380);
#288=LINE('',#1983,#381);
#289=LINE('',#1985,#382);
#290=LINE('',#1987,#383);
#291=LINE('',#1989,#384);
#292=LINE('',#1991,#385);
#293=LINE('',#1994,#386);
#294=LINE('',#1998,#387);
#295=LINE('',#2001,#388);
#296=LINE('',#2003,#389);
#297=LINE('',#2005,#390);
#298=VECTOR('',#1305,2.35);
#299=VECTOR('',#1314,2.35000000000001);
#300=VECTOR('',#1323,2.35);
#301=VECTOR('',#1332,2.35000000000001);
#302=VECTOR('',#1339,10.);
#303=VECTOR('',#1342,10.);
#304=VECTOR('',#1345,10.);
#305=VECTOR('',#1346,10.);
#306=VECTOR('',#1347,10.);
#307=VECTOR('',#1348,10.);
#308=VECTOR('',#1349,10.);
#309=VECTOR('',#1350,10.);
#310=VECTOR('',#1351,10.);
#311=VECTOR('',#1352,10.);
#312=VECTOR('',#1355,10.);
#313=VECTOR('',#1358,10.);
#314=VECTOR('',#1361,10.);
#315=VECTOR('',#1364,10.);
#316=VECTOR('',#1367,10.);
#317=VECTOR('',#1370,10.);
#318=VECTOR('',#1373,10.);
#319=VECTOR('',#1380,10.);
#320=VECTOR('',#1383,10.);
#321=VECTOR('',#1386,10.);
#322=VECTOR('',#1387,10.);
#323=VECTOR('',#1388,10.);
#324=VECTOR('',#1395,10.);
#325=VECTOR('',#1398,10.);
#326=VECTOR('',#1403,10.);
#327=VECTOR('',#1406,10.);
#328=VECTOR('',#1411,10.);
#329=VECTOR('',#1416,10.);
#330=VECTOR('',#1417,10.);
#331=VECTOR('',#1422,10.);
#332=VECTOR('',#1437,10.);
#333=VECTOR('',#1438,10.);
#334=VECTOR('',#1451,10.);
#335=VECTOR('',#1452,10.);
#336=VECTOR('',#1465,10.);
#337=VECTOR('',#1466,10.);
#338=VECTOR('',#1477,10.);
#339=VECTOR('',#1478,10.);
#340=VECTOR('',#1481,10.);
#341=VECTOR('',#1482,10.);
#342=VECTOR('',#1483,10.);
#343=VECTOR('',#1486,10.);
#344=VECTOR('',#1491,10.);
#345=VECTOR('',#1492,10.);
#346=VECTOR('',#1495,10.);
#347=VECTOR('',#1502,10.);
#348=VECTOR('',#1505,10.);
#349=VECTOR('',#1508,10.);
#350=VECTOR('',#1511,10.);
#351=VECTOR('',#1514,10.);
#352=VECTOR('',#1517,10.);
#353=VECTOR('',#1520,10.);
#354=VECTOR('',#1523,10.);
#355=VECTOR('',#1526,10.);
#356=VECTOR('',#1527,10.);
#357=VECTOR('',#1530,10.);
#358=VECTOR('',#1533,10.);
#359=VECTOR('',#1534,10.);
#360=VECTOR('',#1537,10.);
#361=VECTOR('',#1540,10.);
#362=VECTOR('',#1545,10.);
#363=VECTOR('',#1550,10.);
#364=VECTOR('',#1551,10.);
#365=VECTOR('',#1554,10.);
#366=VECTOR('',#1557,10.);
#367=VECTOR('',#1558,10.);
#368=VECTOR('',#1563,10.);
#369=VECTOR('',#1566,10.);
#370=VECTOR('',#1569,10.);
#371=VECTOR('',#1588,10.);
#372=VECTOR('',#1589,10.);
#373=VECTOR('',#1608,10.);
#374=VECTOR('',#1613,10.);
#375=VECTOR('',#1614,10.);
#376=VECTOR('',#1617,10.);
#377=VECTOR('',#1622,10.);
#378=VECTOR('',#1623,10.);
#379=VECTOR('',#1626,10.);
#380=VECTOR('',#1631,10.);
#381=VECTOR('',#1632,10.);
#382=VECTOR('',#1635,10.);
#383=VECTOR('',#1638,10.);
#384=VECTOR('',#1641,10.);
#385=VECTOR('',#1644,10.);
#386=VECTOR('',#1647,10.);
#387=VECTOR('',#1650,10.);
#388=VECTOR('',#1655,10.);
#389=VECTOR('',#1658,10.);
#390=VECTOR('',#1661,10.);
#391=CIRCLE('',#1165,2.35000000000001);
#392=CIRCLE('',#1166,2.35000000000001);
#393=CIRCLE('',#1169,2.35000000000001);
#394=CIRCLE('',#1170,2.35000000000001);
#395=CIRCLE('',#1173,2.35);
#396=CIRCLE('',#1174,2.35);
#397=CIRCLE('',#1177,2.35000000000001);
#398=CIRCLE('',#1178,2.35000000000001);
#399=CIRCLE('',#1181,0.5);
#400=CIRCLE('',#1183,0.5);
#401=CIRCLE('',#1184,0.5);
#402=CIRCLE('',#1185,0.5);
#403=CIRCLE('',#1186,0.5);
#404=CIRCLE('',#1187,0.5);
#405=CIRCLE('',#1188,0.5);
#406=CIRCLE('',#1189,0.5);
#407=CIRCLE('',#1190,0.5);
#408=CIRCLE('',#1192,0.5);
#409=CIRCLE('',#1193,0.5);
#410=CIRCLE('',#1196,0.5);
#411=CIRCLE('',#1197,0.5);
#412=CIRCLE('',#1199,0.5);
#413=CIRCLE('',#1201,2.);
#414=CIRCLE('',#1203,2.);
#415=CIRCLE('',#1204,2.);
#416=CIRCLE('',#1207,2.);
#417=CIRCLE('',#1209,0.499999999999989);
#418=CIRCLE('',#1210,4.5);
#419=CIRCLE('',#1211,0.5);
#420=CIRCLE('',#1212,5.);
#421=CIRCLE('',#1214,0.5);
#422=CIRCLE('',#1216,0.5);
#423=CIRCLE('',#1217,5.);
#424=CIRCLE('',#1218,4.5);
#425=CIRCLE('',#1220,0.5);
#426=CIRCLE('',#1222,0.5);
#427=CIRCLE('',#1223,4.99999999999999);
#428=CIRCLE('',#1224,4.5);
#429=CIRCLE('',#1226,0.5);
#430=CIRCLE('',#1228,0.5);
#431=CIRCLE('',#1229,5.00000000000001);
#432=CIRCLE('',#1230,4.50000000000002);
#433=CIRCLE('',#1234,5.00000000000001);
#434=CIRCLE('',#1237,5.);
#435=CIRCLE('',#1239,0.5);
#436=CIRCLE('',#1240,0.5);
#437=CIRCLE('',#1241,0.5);
#438=CIRCLE('',#1242,0.5);
#439=CIRCLE('',#1243,0.5);
#440=CIRCLE('',#1244,0.5);
#441=CIRCLE('',#1245,0.5);
#442=CIRCLE('',#1246,0.5);
#443=CIRCLE('',#1264,2.);
#444=CIRCLE('',#1265,2.);
#445=CIRCLE('',#1267,2.);
#446=CIRCLE('',#1268,2.);
#447=CIRCLE('',#1270,2.);
#448=CIRCLE('',#1272,2.);
#449=CIRCLE('',#1273,1.99999999999999);
#450=CIRCLE('',#1274,1.99999999999999);
#451=CIRCLE('',#1276,2.);
#452=CIRCLE('',#1277,2.);
#453=CIRCLE('',#1278,1.99999999999999);
#454=CIRCLE('',#1281,2.);
#455=CIRCLE('',#1284,2.);
#456=CIRCLE('',#1287,2.);
#457=CIRCLE('',#1293,5.);
#458=CIRCLE('',#1294,4.99999999999999);
#459=VERTEX_POINT('',#1666);
#460=VERTEX_POINT('',#1668);
#461=VERTEX_POINT('',#1673);
#462=VERTEX_POINT('',#1675);
#463=VERTEX_POINT('',#1680);
#464=VERTEX_POINT('',#1682);
#465=VERTEX_POINT('',#1687);
#466=VERTEX_POINT('',#1689);
#467=VERTEX_POINT('',#1694);
#468=VERTEX_POINT('',#1695);
#469=VERTEX_POINT('',#1702);
#470=VERTEX_POINT('',#1704);
#471=VERTEX_POINT('',#1708);
#472=VERTEX_POINT('',#1710);
#473=VERTEX_POINT('',#1712);
#474=VERTEX_POINT('',#1714);
#475=VERTEX_POINT('',#1716);
#476=VERTEX_POINT('',#1718);
#477=VERTEX_POINT('',#1721);
#478=VERTEX_POINT('',#1722);
#479=VERTEX_POINT('',#1724);
#480=VERTEX_POINT('',#1726);
#481=VERTEX_POINT('',#1728);
#482=VERTEX_POINT('',#1730);
#483=VERTEX_POINT('',#1732);
#484=VERTEX_POINT('',#1734);
#485=VERTEX_POINT('',#1737);
#486=VERTEX_POINT('',#1738);
#487=VERTEX_POINT('',#1740);
#488=VERTEX_POINT('',#1742);
#489=VERTEX_POINT('',#1744);
#490=VERTEX_POINT('',#1746);
#491=VERTEX_POINT('',#1748);
#492=VERTEX_POINT('',#1750);
#493=VERTEX_POINT('',#1754);
#494=VERTEX_POINT('',#1755);
#495=VERTEX_POINT('',#1757);
#496=VERTEX_POINT('',#1759);
#497=VERTEX_POINT('',#1763);
#498=VERTEX_POINT('',#1765);
#499=VERTEX_POINT('',#1769);
#500=VERTEX_POINT('',#1771);
#501=VERTEX_POINT('',#1775);
#502=VERTEX_POINT('',#1782);
#503=VERTEX_POINT('',#1787);
#504=VERTEX_POINT('',#1791);
#505=VERTEX_POINT('',#1793);
#506=VERTEX_POINT('',#1800);
#507=VERTEX_POINT('',#1804);
#508=VERTEX_POINT('',#1805);
#509=VERTEX_POINT('',#1807);
#510=VERTEX_POINT('',#1809);
#511=VERTEX_POINT('',#1813);
#512=VERTEX_POINT('',#1814);
#513=VERTEX_POINT('',#1819);
#514=VERTEX_POINT('',#1820);
#515=VERTEX_POINT('',#1825);
#516=VERTEX_POINT('',#1826);
#517=VERTEX_POINT('',#1831);
#518=VERTEX_POINT('',#1832);
#519=VERTEX_POINT('',#1837);
#520=VERTEX_POINT('',#1838);
#521=VERTEX_POINT('',#1843);
#522=VERTEX_POINT('',#1844);
#523=VERTEX_POINT('',#1852);
#524=VERTEX_POINT('',#1854);
#525=VERTEX_POINT('',#1858);
#526=VERTEX_POINT('',#1862);
#527=VERTEX_POINT('',#1866);
#528=VERTEX_POINT('',#1870);
#529=VERTEX_POINT('',#1871);
#530=VERTEX_POINT('',#1873);
#531=VERTEX_POINT('',#1875);
#532=VERTEX_POINT('',#1877);
#533=VERTEX_POINT('',#1879);
#534=VERTEX_POINT('',#1881);
#535=VERTEX_POINT('',#1883);
#536=VERTEX_POINT('',#1886);
#537=VERTEX_POINT('',#1887);
#538=VERTEX_POINT('',#1889);
#539=VERTEX_POINT('',#1891);
#540=VERTEX_POINT('',#1893);
#541=VERTEX_POINT('',#1895);
#542=VERTEX_POINT('',#1897);
#543=VERTEX_POINT('',#1899);
#544=VERTEX_POINT('',#1935);
#545=VERTEX_POINT('',#1939);
#546=VERTEX_POINT('',#1943);
#547=VERTEX_POINT('',#1944);
#548=VERTEX_POINT('',#1949);
#549=VERTEX_POINT('',#1951);
#550=VERTEX_POINT('',#1955);
#551=VERTEX_POINT('',#1957);
#552=VERTEX_POINT('',#1963);
#553=VERTEX_POINT('',#1964);
#554=VERTEX_POINT('',#1971);
#555=VERTEX_POINT('',#1972);
#556=VERTEX_POINT('',#1979);
#557=VERTEX_POINT('',#1980);
#558=VERTEX_POINT('',#1993);
#559=VERTEX_POINT('',#1995);
#560=VERTEX_POINT('',#1997);
#561=EDGE_CURVE('',#459,#459,#391,.T.);
#562=EDGE_CURVE('',#459,#460,#205,.T.);
#563=EDGE_CURVE('',#460,#460,#392,.T.);
#564=EDGE_CURVE('',#461,#461,#393,.T.);
#565=EDGE_CURVE('',#461,#462,#206,.T.);
#566=EDGE_CURVE('',#462,#462,#394,.T.);
#567=EDGE_CURVE('',#463,#463,#395,.T.);
#568=EDGE_CURVE('',#463,#464,#207,.T.);
#569=EDGE_CURVE('',#464,#464,#396,.T.);
#570=EDGE_CURVE('',#465,#465,#397,.T.);
#571=EDGE_CURVE('',#465,#466,#208,.T.);
#572=EDGE_CURVE('',#466,#466,#398,.T.);
#573=EDGE_CURVE('',#467,#468,#33,.T.);
#574=EDGE_CURVE('',#468,#469,#209,.T.);
#575=EDGE_CURVE('',#469,#470,#399,.T.);
#576=EDGE_CURVE('',#470,#467,#210,.T.);
#577=EDGE_CURVE('',#471,#468,#211,.T.);
#578=EDGE_CURVE('',#472,#471,#212,.T.);
#579=EDGE_CURVE('',#473,#472,#213,.T.);
#580=EDGE_CURVE('',#474,#473,#214,.T.);
#581=EDGE_CURVE('',#475,#474,#215,.T.);
#582=EDGE_CURVE('',#476,#475,#216,.T.);
#583=EDGE_CURVE('',#469,#476,#217,.T.);
#584=EDGE_CURVE('',#477,#478,#218,.T.);
#585=EDGE_CURVE('',#479,#478,#400,.T.);
#586=EDGE_CURVE('',#479,#480,#219,.T.);
#587=EDGE_CURVE('',#481,#480,#401,.T.);
#588=EDGE_CURVE('',#481,#482,#220,.T.);
#589=EDGE_CURVE('',#483,#482,#402,.T.);
#590=EDGE_CURVE('',#483,#484,#221,.T.);
#591=EDGE_CURVE('',#477,#484,#403,.T.);
#592=EDGE_CURVE('',#485,#486,#222,.T.);
#593=EDGE_CURVE('',#487,#486,#404,.T.);
#594=EDGE_CURVE('',#487,#488,#223,.T.);
#595=EDGE_CURVE('',#489,#488,#405,.T.);
#596=EDGE_CURVE('',#489,#490,#224,.T.);
#597=EDGE_CURVE('',#491,#490,#406,.T.);
#598=EDGE_CURVE('',#491,#492,#225,.T.);
#599=EDGE_CURVE('',#485,#492,#407,.T.);
#600=EDGE_CURVE('',#493,#494,#408,.T.);
#601=EDGE_CURVE('',#494,#495,#226,.T.);
#602=EDGE_CURVE('',#495,#496,#409,.T.);
#603=EDGE_CURVE('',#496,#493,#227,.T.);
#604=EDGE_CURVE('',#497,#494,#228,.T.);
#605=EDGE_CURVE('',#498,#497,#229,.T.);
#606=EDGE_CURVE('',#495,#498,#230,.T.);
#607=EDGE_CURVE('',#499,#498,#410,.T.);
#608=EDGE_CURVE('',#497,#500,#411,.T.);
#609=EDGE_CURVE('',#500,#499,#231,.T.);
#610=EDGE_CURVE('',#475,#501,#34,.T.);
#611=EDGE_CURVE('',#501,#502,#232,.T.);
#612=EDGE_CURVE('',#502,#476,#412,.T.);
#613=EDGE_CURVE('',#502,#500,#233,.T.);
#614=EDGE_CURVE('',#501,#503,#413,.T.);
#615=EDGE_CURVE('',#499,#503,#234,.T.);
#616=EDGE_CURVE('',#504,#467,#414,.T.);
#617=EDGE_CURVE('',#504,#505,#235,.T.);
#618=EDGE_CURVE('',#505,#471,#415,.F.);
#619=EDGE_CURVE('',#493,#470,#236,.T.);
#620=EDGE_CURVE('',#504,#496,#237,.T.);
#621=EDGE_CURVE('',#474,#506,#416,.F.);
#622=EDGE_CURVE('',#506,#503,#238,.T.);
#623=EDGE_CURVE('',#507,#508,#417,.T.);
#624=EDGE_CURVE('',#508,#509,#418,.T.);
#625=EDGE_CURVE('',#509,#510,#419,.T.);
#626=EDGE_CURVE('',#510,#507,#420,.T.);
#627=EDGE_CURVE('',#511,#512,#421,.T.);
#628=EDGE_CURVE('',#512,#510,#239,.T.);
#629=EDGE_CURVE('',#509,#511,#240,.T.);
#630=EDGE_CURVE('',#513,#514,#422,.T.);
#631=EDGE_CURVE('',#514,#512,#423,.T.);
#632=EDGE_CURVE('',#511,#513,#424,.T.);
#633=EDGE_CURVE('',#515,#516,#425,.T.);
#634=EDGE_CURVE('',#516,#514,#241,.T.);
#635=EDGE_CURVE('',#513,#515,#242,.T.);
#636=EDGE_CURVE('',#517,#518,#426,.T.);
#637=EDGE_CURVE('',#518,#516,#427,.T.);
#638=EDGE_CURVE('',#515,#517,#428,.T.);
#639=EDGE_CURVE('',#519,#520,#429,.T.);
#640=EDGE_CURVE('',#520,#518,#243,.T.);
#641=EDGE_CURVE('',#517,#519,#244,.T.);
#642=EDGE_CURVE('',#521,#522,#430,.T.);
#643=EDGE_CURVE('',#522,#520,#431,.T.);
#644=EDGE_CURVE('',#519,#521,#432,.T.);
#645=EDGE_CURVE('',#521,#508,#245,.T.);
#646=EDGE_CURVE('',#507,#522,#246,.T.);
#647=EDGE_CURVE('',#520,#523,#247,.T.);
#648=EDGE_CURVE('',#524,#523,#248,.T.);
#649=EDGE_CURVE('',#518,#524,#249,.T.);
#650=EDGE_CURVE('',#522,#525,#250,.T.);
#651=EDGE_CURVE('',#523,#525,#433,.T.);
#652=EDGE_CURVE('',#507,#526,#251,.T.);
#653=EDGE_CURVE('',#525,#526,#252,.T.);
#654=EDGE_CURVE('',#510,#527,#253,.T.);
#655=EDGE_CURVE('',#526,#527,#434,.T.);
#656=EDGE_CURVE('',#528,#529,#435,.T.);
#657=EDGE_CURVE('',#530,#528,#254,.T.);
#658=EDGE_CURVE('',#531,#530,#436,.T.);
#659=EDGE_CURVE('',#532,#531,#255,.T.);
#660=EDGE_CURVE('',#533,#532,#437,.T.);
#661=EDGE_CURVE('',#534,#533,#256,.T.);
#662=EDGE_CURVE('',#535,#534,#438,.T.);
#663=EDGE_CURVE('',#529,#535,#257,.T.);
#664=EDGE_CURVE('',#536,#537,#439,.T.);
#665=EDGE_CURVE('',#538,#536,#258,.T.);
#666=EDGE_CURVE('',#539,#538,#440,.T.);
#667=EDGE_CURVE('',#540,#539,#259,.T.);
#668=EDGE_CURVE('',#541,#540,#441,.T.);
#669=EDGE_CURVE('',#542,#541,#260,.T.);
#670=EDGE_CURVE('',#543,#542,#442,.T.);
#671=EDGE_CURVE('',#537,#543,#261,.T.);
#672=EDGE_CURVE('',#532,#489,#262,.T.);
#673=EDGE_CURVE('',#488,#533,#263,.T.);
#674=EDGE_CURVE('',#490,#531,#264,.T.);
#675=EDGE_CURVE('',#529,#485,#265,.T.);
#676=EDGE_CURVE('',#492,#528,#266,.T.);
#677=EDGE_CURVE('',#486,#535,#267,.T.);
#678=EDGE_CURVE('',#534,#487,#268,.T.);
#679=EDGE_CURVE('',#530,#491,#269,.T.);
#680=EDGE_CURVE('',#538,#483,#270,.T.);
#681=EDGE_CURVE('',#482,#539,#271,.T.);
#682=EDGE_CURVE('',#484,#536,#272,.T.);
#683=EDGE_CURVE('',#540,#481,#273,.T.);
#684=EDGE_CURVE('',#480,#541,#274,.T.);
#685=EDGE_CURVE('',#537,#477,#275,.T.);
#686=EDGE_CURVE('',#478,#543,#276,.T.);
#687=EDGE_CURVE('',#542,#479,#277,.T.);
#688=EDGE_CURVE('',#506,#544,#443,.F.);
#689=EDGE_CURVE('',#544,#474,#444,.F.);
#690=EDGE_CURVE('',#471,#545,#445,.F.);
#691=EDGE_CURVE('',#545,#505,#446,.F.);
#692=EDGE_CURVE('',#546,#547,#447,.T.);
#693=EDGE_CURVE('',#547,#545,#278,.T.);
#694=EDGE_CURVE('',#505,#546,#279,.T.);
#695=EDGE_CURVE('',#473,#548,#448,.F.);
#696=EDGE_CURVE('',#549,#473,#449,.F.);
#697=EDGE_CURVE('',#548,#549,#450,.F.);
#698=EDGE_CURVE('',#472,#550,#451,.F.);
#699=EDGE_CURVE('',#551,#472,#452,.F.);
#700=EDGE_CURVE('',#550,#551,#453,.F.);
#701=EDGE_CURVE('',#545,#551,#280,.T.);
#702=EDGE_CURVE('',#552,#553,#454,.T.);
#703=EDGE_CURVE('',#553,#550,#281,.T.);
#704=EDGE_CURVE('',#551,#552,#282,.T.);
#705=EDGE_CURVE('',#550,#549,#283,.T.);
#706=EDGE_CURVE('',#554,#555,#455,.T.);
#707=EDGE_CURVE('',#555,#548,#284,.T.);
#708=EDGE_CURVE('',#549,#554,#285,.T.);
#709=EDGE_CURVE('',#548,#544,#286,.T.);
#710=EDGE_CURVE('',#556,#557,#456,.T.);
#711=EDGE_CURVE('',#557,#506,#287,.T.);
#712=EDGE_CURVE('',#544,#556,#288,.T.);
#713=EDGE_CURVE('',#556,#555,#289,.T.);
#714=EDGE_CURVE('',#554,#553,#290,.T.);
#715=EDGE_CURVE('',#552,#547,#291,.T.);
#716=EDGE_CURVE('',#546,#557,#292,.T.);
#717=EDGE_CURVE('',#527,#558,#293,.T.);
#718=EDGE_CURVE('',#558,#559,#457,.T.);
#719=EDGE_CURVE('',#559,#560,#294,.T.);
#720=EDGE_CURVE('',#560,#524,#458,.T.);
#721=EDGE_CURVE('',#516,#560,#295,.T.);
#722=EDGE_CURVE('',#514,#559,#296,.T.);
#723=EDGE_CURVE('',#512,#558,#297,.T.);
#724=ORIENTED_EDGE('',*,*,#561,.F.);
#725=ORIENTED_EDGE('',*,*,#562,.T.);
#726=ORIENTED_EDGE('',*,*,#563,.T.);
#727=ORIENTED_EDGE('',*,*,#562,.F.);
#728=ORIENTED_EDGE('',*,*,#563,.F.);
#729=ORIENTED_EDGE('',*,*,#564,.F.);
#730=ORIENTED_EDGE('',*,*,#565,.T.);
#731=ORIENTED_EDGE('',*,*,#566,.T.);
#732=ORIENTED_EDGE('',*,*,#565,.F.);
#733=ORIENTED_EDGE('',*,*,#566,.F.);
#734=ORIENTED_EDGE('',*,*,#567,.F.);
#735=ORIENTED_EDGE('',*,*,#568,.T.);
#736=ORIENTED_EDGE('',*,*,#569,.T.);
#737=ORIENTED_EDGE('',*,*,#568,.F.);
#738=ORIENTED_EDGE('',*,*,#569,.F.);
#739=ORIENTED_EDGE('',*,*,#570,.F.);
#740=ORIENTED_EDGE('',*,*,#571,.T.);
#741=ORIENTED_EDGE('',*,*,#572,.T.);
#742=ORIENTED_EDGE('',*,*,#571,.F.);
#743=ORIENTED_EDGE('',*,*,#572,.F.);
#744=ORIENTED_EDGE('',*,*,#573,.T.);
#745=ORIENTED_EDGE('',*,*,#574,.T.);
#746=ORIENTED_EDGE('',*,*,#575,.T.);
#747=ORIENTED_EDGE('',*,*,#576,.T.);
#748=ORIENTED_EDGE('',*,*,#574,.F.);
#749=ORIENTED_EDGE('',*,*,#577,.F.);
#750=ORIENTED_EDGE('',*,*,#578,.F.);
#751=ORIENTED_EDGE('',*,*,#579,.F.);
#752=ORIENTED_EDGE('',*,*,#580,.F.);
#753=ORIENTED_EDGE('',*,*,#581,.F.);
#754=ORIENTED_EDGE('',*,*,#582,.F.);
#755=ORIENTED_EDGE('',*,*,#583,.F.);
#756=ORIENTED_EDGE('',*,*,#584,.T.);
#757=ORIENTED_EDGE('',*,*,#585,.F.);
#758=ORIENTED_EDGE('',*,*,#586,.T.);
#759=ORIENTED_EDGE('',*,*,#587,.F.);
#760=ORIENTED_EDGE('',*,*,#588,.T.);
#761=ORIENTED_EDGE('',*,*,#589,.F.);
#762=ORIENTED_EDGE('',*,*,#590,.T.);
#763=ORIENTED_EDGE('',*,*,#591,.F.);
#764=ORIENTED_EDGE('',*,*,#592,.T.);
#765=ORIENTED_EDGE('',*,*,#593,.F.);
#766=ORIENTED_EDGE('',*,*,#594,.T.);
#767=ORIENTED_EDGE('',*,*,#595,.F.);
#768=ORIENTED_EDGE('',*,*,#596,.T.);
#769=ORIENTED_EDGE('',*,*,#597,.F.);
#770=ORIENTED_EDGE('',*,*,#598,.T.);
#771=ORIENTED_EDGE('',*,*,#599,.F.);
#772=ORIENTED_EDGE('',*,*,#600,.T.);
#773=ORIENTED_EDGE('',*,*,#601,.T.);
#774=ORIENTED_EDGE('',*,*,#602,.T.);
#775=ORIENTED_EDGE('',*,*,#603,.T.);
#776=ORIENTED_EDGE('',*,*,#601,.F.);
#777=ORIENTED_EDGE('',*,*,#604,.F.);
#778=ORIENTED_EDGE('',*,*,#605,.F.);
#779=ORIENTED_EDGE('',*,*,#606,.F.);
#780=ORIENTED_EDGE('',*,*,#607,.T.);
#781=ORIENTED_EDGE('',*,*,#605,.T.);
#782=ORIENTED_EDGE('',*,*,#608,.T.);
#783=ORIENTED_EDGE('',*,*,#609,.T.);
#784=ORIENTED_EDGE('',*,*,#610,.T.);
#785=ORIENTED_EDGE('',*,*,#611,.T.);
#786=ORIENTED_EDGE('',*,*,#612,.T.);
#787=ORIENTED_EDGE('',*,*,#582,.T.);
#788=ORIENTED_EDGE('',*,*,#609,.F.);
#789=ORIENTED_EDGE('',*,*,#613,.F.);
#790=ORIENTED_EDGE('',*,*,#611,.F.);
#791=ORIENTED_EDGE('',*,*,#614,.T.);
#792=ORIENTED_EDGE('',*,*,#615,.F.);
#793=ORIENTED_EDGE('',*,*,#616,.F.);
#794=ORIENTED_EDGE('',*,*,#617,.T.);
#795=ORIENTED_EDGE('',*,*,#618,.T.);
#796=ORIENTED_EDGE('',*,*,#577,.T.);
#797=ORIENTED_EDGE('',*,*,#573,.F.);
#798=ORIENTED_EDGE('',*,*,#576,.F.);
#799=ORIENTED_EDGE('',*,*,#619,.F.);
#800=ORIENTED_EDGE('',*,*,#603,.F.);
#801=ORIENTED_EDGE('',*,*,#620,.F.);
#802=ORIENTED_EDGE('',*,*,#616,.T.);
#803=ORIENTED_EDGE('',*,*,#581,.T.);
#804=ORIENTED_EDGE('',*,*,#621,.T.);
#805=ORIENTED_EDGE('',*,*,#622,.T.);
#806=ORIENTED_EDGE('',*,*,#614,.F.);
#807=ORIENTED_EDGE('',*,*,#610,.F.);
#808=ORIENTED_EDGE('',*,*,#623,.T.);
#809=ORIENTED_EDGE('',*,*,#624,.T.);
#810=ORIENTED_EDGE('',*,*,#625,.T.);
#811=ORIENTED_EDGE('',*,*,#626,.T.);
#812=ORIENTED_EDGE('',*,*,#627,.T.);
#813=ORIENTED_EDGE('',*,*,#628,.T.);
#814=ORIENTED_EDGE('',*,*,#625,.F.);
#815=ORIENTED_EDGE('',*,*,#629,.T.);
#816=ORIENTED_EDGE('',*,*,#630,.T.);
#817=ORIENTED_EDGE('',*,*,#631,.T.);
#818=ORIENTED_EDGE('',*,*,#627,.F.);
#819=ORIENTED_EDGE('',*,*,#632,.T.);
#820=ORIENTED_EDGE('',*,*,#633,.T.);
#821=ORIENTED_EDGE('',*,*,#634,.T.);
#822=ORIENTED_EDGE('',*,*,#630,.F.);
#823=ORIENTED_EDGE('',*,*,#635,.T.);
#824=ORIENTED_EDGE('',*,*,#636,.T.);
#825=ORIENTED_EDGE('',*,*,#637,.T.);
#826=ORIENTED_EDGE('',*,*,#633,.F.);
#827=ORIENTED_EDGE('',*,*,#638,.T.);
#828=ORIENTED_EDGE('',*,*,#639,.T.);
#829=ORIENTED_EDGE('',*,*,#640,.T.);
#830=ORIENTED_EDGE('',*,*,#636,.F.);
#831=ORIENTED_EDGE('',*,*,#641,.T.);
#832=ORIENTED_EDGE('',*,*,#642,.T.);
#833=ORIENTED_EDGE('',*,*,#643,.T.);
#834=ORIENTED_EDGE('',*,*,#639,.F.);
#835=ORIENTED_EDGE('',*,*,#644,.T.);
#836=ORIENTED_EDGE('',*,*,#642,.F.);
#837=ORIENTED_EDGE('',*,*,#645,.T.);
#838=ORIENTED_EDGE('',*,*,#623,.F.);
#839=ORIENTED_EDGE('',*,*,#646,.T.);
#840=ORIENTED_EDGE('',*,*,#640,.F.);
#841=ORIENTED_EDGE('',*,*,#647,.T.);
#842=ORIENTED_EDGE('',*,*,#648,.F.);
#843=ORIENTED_EDGE('',*,*,#649,.F.);
#844=ORIENTED_EDGE('',*,*,#643,.F.);
#845=ORIENTED_EDGE('',*,*,#650,.T.);
#846=ORIENTED_EDGE('',*,*,#651,.F.);
#847=ORIENTED_EDGE('',*,*,#647,.F.);
#848=ORIENTED_EDGE('',*,*,#646,.F.);
#849=ORIENTED_EDGE('',*,*,#652,.T.);
#850=ORIENTED_EDGE('',*,*,#653,.F.);
#851=ORIENTED_EDGE('',*,*,#650,.F.);
#852=ORIENTED_EDGE('',*,*,#626,.F.);
#853=ORIENTED_EDGE('',*,*,#654,.T.);
#854=ORIENTED_EDGE('',*,*,#655,.F.);
#855=ORIENTED_EDGE('',*,*,#652,.F.);
#856=ORIENTED_EDGE('',*,*,#624,.F.);
#857=ORIENTED_EDGE('',*,*,#645,.F.);
#858=ORIENTED_EDGE('',*,*,#644,.F.);
#859=ORIENTED_EDGE('',*,*,#641,.F.);
#860=ORIENTED_EDGE('',*,*,#638,.F.);
#861=ORIENTED_EDGE('',*,*,#635,.F.);
#862=ORIENTED_EDGE('',*,*,#632,.F.);
#863=ORIENTED_EDGE('',*,*,#629,.F.);
#864=ORIENTED_EDGE('',*,*,#656,.F.);
#865=ORIENTED_EDGE('',*,*,#657,.F.);
#866=ORIENTED_EDGE('',*,*,#658,.F.);
#867=ORIENTED_EDGE('',*,*,#659,.F.);
#868=ORIENTED_EDGE('',*,*,#660,.F.);
#869=ORIENTED_EDGE('',*,*,#661,.F.);
#870=ORIENTED_EDGE('',*,*,#662,.F.);
#871=ORIENTED_EDGE('',*,*,#663,.F.);
#872=ORIENTED_EDGE('',*,*,#664,.F.);
#873=ORIENTED_EDGE('',*,*,#665,.F.);
#874=ORIENTED_EDGE('',*,*,#666,.F.);
#875=ORIENTED_EDGE('',*,*,#667,.F.);
#876=ORIENTED_EDGE('',*,*,#668,.F.);
#877=ORIENTED_EDGE('',*,*,#669,.F.);
#878=ORIENTED_EDGE('',*,*,#670,.F.);
#879=ORIENTED_EDGE('',*,*,#671,.F.);
#880=ORIENTED_EDGE('',*,*,#660,.T.);
#881=ORIENTED_EDGE('',*,*,#672,.T.);
#882=ORIENTED_EDGE('',*,*,#595,.T.);
#883=ORIENTED_EDGE('',*,*,#673,.T.);
#884=ORIENTED_EDGE('',*,*,#672,.F.);
#885=ORIENTED_EDGE('',*,*,#659,.T.);
#886=ORIENTED_EDGE('',*,*,#674,.F.);
#887=ORIENTED_EDGE('',*,*,#596,.F.);
#888=ORIENTED_EDGE('',*,*,#656,.T.);
#889=ORIENTED_EDGE('',*,*,#675,.T.);
#890=ORIENTED_EDGE('',*,*,#599,.T.);
#891=ORIENTED_EDGE('',*,*,#676,.T.);
#892=ORIENTED_EDGE('',*,*,#675,.F.);
#893=ORIENTED_EDGE('',*,*,#663,.T.);
#894=ORIENTED_EDGE('',*,*,#677,.F.);
#895=ORIENTED_EDGE('',*,*,#592,.F.);
#896=ORIENTED_EDGE('',*,*,#662,.T.);
#897=ORIENTED_EDGE('',*,*,#678,.T.);
#898=ORIENTED_EDGE('',*,*,#593,.T.);
#899=ORIENTED_EDGE('',*,*,#677,.T.);
#900=ORIENTED_EDGE('',*,*,#673,.F.);
#901=ORIENTED_EDGE('',*,*,#594,.F.);
#902=ORIENTED_EDGE('',*,*,#678,.F.);
#903=ORIENTED_EDGE('',*,*,#661,.T.);
#904=ORIENTED_EDGE('',*,*,#658,.T.);
#905=ORIENTED_EDGE('',*,*,#679,.T.);
#906=ORIENTED_EDGE('',*,*,#597,.T.);
#907=ORIENTED_EDGE('',*,*,#674,.T.);
#908=ORIENTED_EDGE('',*,*,#676,.F.);
#909=ORIENTED_EDGE('',*,*,#598,.F.);
#910=ORIENTED_EDGE('',*,*,#679,.F.);
#911=ORIENTED_EDGE('',*,*,#657,.T.);
#912=ORIENTED_EDGE('',*,*,#666,.T.);
#913=ORIENTED_EDGE('',*,*,#680,.T.);
#914=ORIENTED_EDGE('',*,*,#589,.T.);
#915=ORIENTED_EDGE('',*,*,#681,.T.);
#916=ORIENTED_EDGE('',*,*,#680,.F.);
#917=ORIENTED_EDGE('',*,*,#665,.T.);
#918=ORIENTED_EDGE('',*,*,#682,.F.);
#919=ORIENTED_EDGE('',*,*,#590,.F.);
#920=ORIENTED_EDGE('',*,*,#668,.T.);
#921=ORIENTED_EDGE('',*,*,#683,.T.);
#922=ORIENTED_EDGE('',*,*,#587,.T.);
#923=ORIENTED_EDGE('',*,*,#684,.T.);
#924=ORIENTED_EDGE('',*,*,#681,.F.);
#925=ORIENTED_EDGE('',*,*,#588,.F.);
#926=ORIENTED_EDGE('',*,*,#683,.F.);
#927=ORIENTED_EDGE('',*,*,#667,.T.);
#928=ORIENTED_EDGE('',*,*,#664,.T.);
#929=ORIENTED_EDGE('',*,*,#685,.T.);
#930=ORIENTED_EDGE('',*,*,#591,.T.);
#931=ORIENTED_EDGE('',*,*,#682,.T.);
#932=ORIENTED_EDGE('',*,*,#685,.F.);
#933=ORIENTED_EDGE('',*,*,#671,.T.);
#934=ORIENTED_EDGE('',*,*,#686,.F.);
#935=ORIENTED_EDGE('',*,*,#584,.F.);
#936=ORIENTED_EDGE('',*,*,#670,.T.);
#937=ORIENTED_EDGE('',*,*,#687,.T.);
#938=ORIENTED_EDGE('',*,*,#585,.T.);
#939=ORIENTED_EDGE('',*,*,#686,.T.);
#940=ORIENTED_EDGE('',*,*,#684,.F.);
#941=ORIENTED_EDGE('',*,*,#586,.F.);
#942=ORIENTED_EDGE('',*,*,#687,.F.);
#943=ORIENTED_EDGE('',*,*,#669,.T.);
#944=ORIENTED_EDGE('',*,*,#688,.F.);
#945=ORIENTED_EDGE('',*,*,#621,.F.);
#946=ORIENTED_EDGE('',*,*,#689,.F.);
#947=ORIENTED_EDGE('',*,*,#690,.F.);
#948=ORIENTED_EDGE('',*,*,#618,.F.);
#949=ORIENTED_EDGE('',*,*,#691,.F.);
#950=ORIENTED_EDGE('',*,*,#692,.T.);
#951=ORIENTED_EDGE('',*,*,#693,.T.);
#952=ORIENTED_EDGE('',*,*,#691,.T.);
#953=ORIENTED_EDGE('',*,*,#694,.T.);
#954=ORIENTED_EDGE('',*,*,#695,.F.);
#955=ORIENTED_EDGE('',*,*,#696,.F.);
#956=ORIENTED_EDGE('',*,*,#697,.F.);
#957=ORIENTED_EDGE('',*,*,#698,.F.);
#958=ORIENTED_EDGE('',*,*,#699,.F.);
#959=ORIENTED_EDGE('',*,*,#700,.F.);
#960=ORIENTED_EDGE('',*,*,#699,.T.);
#961=ORIENTED_EDGE('',*,*,#578,.T.);
#962=ORIENTED_EDGE('',*,*,#690,.T.);
#963=ORIENTED_EDGE('',*,*,#701,.T.);
#964=ORIENTED_EDGE('',*,*,#702,.T.);
#965=ORIENTED_EDGE('',*,*,#703,.T.);
#966=ORIENTED_EDGE('',*,*,#700,.T.);
#967=ORIENTED_EDGE('',*,*,#704,.T.);
#968=ORIENTED_EDGE('',*,*,#696,.T.);
#969=ORIENTED_EDGE('',*,*,#579,.T.);
#970=ORIENTED_EDGE('',*,*,#698,.T.);
#971=ORIENTED_EDGE('',*,*,#705,.T.);
#972=ORIENTED_EDGE('',*,*,#706,.T.);
#973=ORIENTED_EDGE('',*,*,#707,.T.);
#974=ORIENTED_EDGE('',*,*,#697,.T.);
#975=ORIENTED_EDGE('',*,*,#708,.T.);
#976=ORIENTED_EDGE('',*,*,#689,.T.);
#977=ORIENTED_EDGE('',*,*,#580,.T.);
#978=ORIENTED_EDGE('',*,*,#695,.T.);
#979=ORIENTED_EDGE('',*,*,#709,.T.);
#980=ORIENTED_EDGE('',*,*,#710,.T.);
#981=ORIENTED_EDGE('',*,*,#711,.T.);
#982=ORIENTED_EDGE('',*,*,#688,.T.);
#983=ORIENTED_EDGE('',*,*,#712,.T.);
#984=ORIENTED_EDGE('',*,*,#712,.F.);
#985=ORIENTED_EDGE('',*,*,#709,.F.);
#986=ORIENTED_EDGE('',*,*,#707,.F.);
#987=ORIENTED_EDGE('',*,*,#713,.F.);
#988=ORIENTED_EDGE('',*,*,#708,.F.);
#989=ORIENTED_EDGE('',*,*,#705,.F.);
#990=ORIENTED_EDGE('',*,*,#703,.F.);
#991=ORIENTED_EDGE('',*,*,#714,.F.);
#992=ORIENTED_EDGE('',*,*,#704,.F.);
#993=ORIENTED_EDGE('',*,*,#701,.F.);
#994=ORIENTED_EDGE('',*,*,#693,.F.);
#995=ORIENTED_EDGE('',*,*,#715,.F.);
#996=ORIENTED_EDGE('',*,*,#620,.T.);
#997=ORIENTED_EDGE('',*,*,#602,.F.);
#998=ORIENTED_EDGE('',*,*,#606,.T.);
#999=ORIENTED_EDGE('',*,*,#607,.F.);
#1000=ORIENTED_EDGE('',*,*,#615,.T.);
#1001=ORIENTED_EDGE('',*,*,#622,.F.);
#1002=ORIENTED_EDGE('',*,*,#711,.F.);
#1003=ORIENTED_EDGE('',*,*,#716,.F.);
#1004=ORIENTED_EDGE('',*,*,#694,.F.);
#1005=ORIENTED_EDGE('',*,*,#617,.F.);
#1006=ORIENTED_EDGE('',*,*,#651,.T.);
#1007=ORIENTED_EDGE('',*,*,#653,.T.);
#1008=ORIENTED_EDGE('',*,*,#655,.T.);
#1009=ORIENTED_EDGE('',*,*,#717,.T.);
#1010=ORIENTED_EDGE('',*,*,#718,.T.);
#1011=ORIENTED_EDGE('',*,*,#719,.T.);
#1012=ORIENTED_EDGE('',*,*,#720,.T.);
#1013=ORIENTED_EDGE('',*,*,#648,.T.);
#1014=ORIENTED_EDGE('',*,*,#561,.T.);
#1015=ORIENTED_EDGE('',*,*,#564,.T.);
#1016=ORIENTED_EDGE('',*,*,#567,.T.);
#1017=ORIENTED_EDGE('',*,*,#570,.T.);
#1018=ORIENTED_EDGE('',*,*,#713,.T.);
#1019=ORIENTED_EDGE('',*,*,#706,.F.);
#1020=ORIENTED_EDGE('',*,*,#714,.T.);
#1021=ORIENTED_EDGE('',*,*,#702,.F.);
#1022=ORIENTED_EDGE('',*,*,#715,.T.);
#1023=ORIENTED_EDGE('',*,*,#692,.F.);
#1024=ORIENTED_EDGE('',*,*,#716,.T.);
#1025=ORIENTED_EDGE('',*,*,#710,.F.);
#1026=ORIENTED_EDGE('',*,*,#637,.F.);
#1027=ORIENTED_EDGE('',*,*,#649,.T.);
#1028=ORIENTED_EDGE('',*,*,#720,.F.);
#1029=ORIENTED_EDGE('',*,*,#721,.F.);
#1030=ORIENTED_EDGE('',*,*,#634,.F.);
#1031=ORIENTED_EDGE('',*,*,#721,.T.);
#1032=ORIENTED_EDGE('',*,*,#719,.F.);
#1033=ORIENTED_EDGE('',*,*,#722,.F.);
#1034=ORIENTED_EDGE('',*,*,#583,.T.);
#1035=ORIENTED_EDGE('',*,*,#612,.F.);
#1036=ORIENTED_EDGE('',*,*,#613,.T.);
#1037=ORIENTED_EDGE('',*,*,#608,.F.);
#1038=ORIENTED_EDGE('',*,*,#604,.T.);
#1039=ORIENTED_EDGE('',*,*,#600,.F.);
#1040=ORIENTED_EDGE('',*,*,#619,.T.);
#1041=ORIENTED_EDGE('',*,*,#575,.F.);
#1042=ORIENTED_EDGE('',*,*,#631,.F.);
#1043=ORIENTED_EDGE('',*,*,#722,.T.);
#1044=ORIENTED_EDGE('',*,*,#718,.F.);
#1045=ORIENTED_EDGE('',*,*,#723,.F.);
#1046=ORIENTED_EDGE('',*,*,#628,.F.);
#1047=ORIENTED_EDGE('',*,*,#723,.T.);
#1048=ORIENTED_EDGE('',*,*,#717,.F.);
#1049=ORIENTED_EDGE('',*,*,#654,.F.);
#1050=CYLINDRICAL_SURFACE('',#1164,2.35000000000001);
#1051=CYLINDRICAL_SURFACE('',#1168,2.35000000000001);
#1052=CYLINDRICAL_SURFACE('',#1172,2.35);
#1053=CYLINDRICAL_SURFACE('',#1176,2.35000000000001);
#1054=CYLINDRICAL_SURFACE('',#1180,0.5);
#1055=CYLINDRICAL_SURFACE('',#1191,0.5);
#1056=CYLINDRICAL_SURFACE('',#1195,0.5);
#1057=CYLINDRICAL_SURFACE('',#1198,0.5);
#1058=CYLINDRICAL_SURFACE('',#1202,2.);
#1059=CYLINDRICAL_SURFACE('',#1206,2.);
#1060=CYLINDRICAL_SURFACE('',#1213,0.5);
#1061=CYLINDRICAL_SURFACE('',#1219,0.5);
#1062=CYLINDRICAL_SURFACE('',#1225,0.5);
#1063=CYLINDRICAL_SURFACE('',#1231,0.5);
#1064=CYLINDRICAL_SURFACE('',#1233,5.00000000000001);
#1065=CYLINDRICAL_SURFACE('',#1236,5.);
#1066=CYLINDRICAL_SURFACE('',#1247,0.5);
#1067=CYLINDRICAL_SURFACE('',#1249,0.5);
#1068=CYLINDRICAL_SURFACE('',#1251,0.5);
#1069=CYLINDRICAL_SURFACE('',#1253,0.5);
#1070=CYLINDRICAL_SURFACE('',#1255,0.5);
#1071=CYLINDRICAL_SURFACE('',#1257,0.5);
#1072=CYLINDRICAL_SURFACE('',#1259,0.5);
#1073=CYLINDRICAL_SURFACE('',#1261,0.5);
#1074=CYLINDRICAL_SURFACE('',#1269,2.);
#1075=CYLINDRICAL_SURFACE('',#1279,2.);
#1076=CYLINDRICAL_SURFACE('',#1280,2.);
#1077=CYLINDRICAL_SURFACE('',#1282,2.);
#1078=CYLINDRICAL_SURFACE('',#1283,2.);
#1079=CYLINDRICAL_SURFACE('',#1285,2.);
#1080=CYLINDRICAL_SURFACE('',#1286,2.);
#1081=CYLINDRICAL_SURFACE('',#1295,4.99999999999999);
#1082=CYLINDRICAL_SURFACE('',#1297,5.);
#1083=ADVANCED_FACE('',(#61),#1050,.F.);
#1084=ADVANCED_FACE('',(#62),#35,.F.);
#1085=ADVANCED_FACE('',(#63),#1051,.F.);
#1086=ADVANCED_FACE('',(#64),#36,.F.);
#1087=ADVANCED_FACE('',(#65),#1052,.F.);
#1088=ADVANCED_FACE('',(#66),#37,.F.);
#1089=ADVANCED_FACE('',(#67),#1053,.F.);
#1090=ADVANCED_FACE('',(#68),#38,.F.);
#1091=ADVANCED_FACE('',(#69),#1054,.F.);
#1092=ADVANCED_FACE('',(#70,#23,#24),#39,.T.);
#1093=ADVANCED_FACE('',(#71),#1055,.F.);
#1094=ADVANCED_FACE('',(#72),#40,.F.);
#1095=ADVANCED_FACE('',(#73),#1056,.F.);
#1096=ADVANCED_FACE('',(#74),#1057,.F.);
#1097=ADVANCED_FACE('',(#75),#41,.F.);
#1098=ADVANCED_FACE('',(#76),#1058,.F.);
#1099=ADVANCED_FACE('',(#77),#42,.F.);
#1100=ADVANCED_FACE('',(#78),#1059,.F.);
#1101=ADVANCED_FACE('',(#79),#19,.T.);
#1102=ADVANCED_FACE('',(#80),#1060,.T.);
#1103=ADVANCED_FACE('',(#81),#20,.T.);
#1104=ADVANCED_FACE('',(#82),#1061,.T.);
#1105=ADVANCED_FACE('',(#83),#21,.T.);
#1106=ADVANCED_FACE('',(#84),#1062,.T.);
#1107=ADVANCED_FACE('',(#85),#22,.T.);
#1108=ADVANCED_FACE('',(#86),#1063,.T.);
#1109=ADVANCED_FACE('',(#87),#43,.T.);
#1110=ADVANCED_FACE('',(#88),#1064,.T.);
#1111=ADVANCED_FACE('',(#89),#44,.T.);
#1112=ADVANCED_FACE('',(#90),#1065,.T.);
#1113=ADVANCED_FACE('',(#91,#25,#26),#45,.F.);
#1114=ADVANCED_FACE('',(#92),#1066,.F.);
#1115=ADVANCED_FACE('',(#93),#46,.T.);
#1116=ADVANCED_FACE('',(#94),#1067,.F.);
#1117=ADVANCED_FACE('',(#95),#47,.T.);
#1118=ADVANCED_FACE('',(#96),#1068,.F.);
#1119=ADVANCED_FACE('',(#97),#48,.T.);
#1120=ADVANCED_FACE('',(#98),#1069,.F.);
#1121=ADVANCED_FACE('',(#99),#49,.T.);
#1122=ADVANCED_FACE('',(#100),#1070,.F.);
#1123=ADVANCED_FACE('',(#101),#50,.T.);
#1124=ADVANCED_FACE('',(#102),#1071,.F.);
#1125=ADVANCED_FACE('',(#103),#51,.T.);
#1126=ADVANCED_FACE('',(#104),#1072,.F.);
#1127=ADVANCED_FACE('',(#105),#52,.T.);
#1128=ADVANCED_FACE('',(#106),#1073,.F.);
#1129=ADVANCED_FACE('',(#107),#53,.T.);
#1130=ADVANCED_FACE('',(#108),#15,.F.);
#1131=ADVANCED_FACE('',(#109),#16,.F.);
#1132=ADVANCED_FACE('',(#110),#1074,.F.);
#1133=ADVANCED_FACE('',(#111),#17,.F.);
#1134=ADVANCED_FACE('',(#112),#18,.F.);
#1135=ADVANCED_FACE('',(#113),#1075,.F.);
#1136=ADVANCED_FACE('',(#114),#1076,.F.);
#1137=ADVANCED_FACE('',(#115),#1077,.F.);
#1138=ADVANCED_FACE('',(#116),#1078,.F.);
#1139=ADVANCED_FACE('',(#117),#1079,.F.);
#1140=ADVANCED_FACE('',(#118),#1080,.F.);
#1141=ADVANCED_FACE('',(#119),#54,.T.);
#1142=ADVANCED_FACE('',(#120),#55,.T.);
#1143=ADVANCED_FACE('',(#121),#56,.T.);
#1144=ADVANCED_FACE('',(#122),#57,.T.);
#1145=ADVANCED_FACE('',(#123,#27,#28,#29,#30,#31),#58,.T.);
#1146=ADVANCED_FACE('',(#124),#1081,.T.);
#1147=ADVANCED_FACE('',(#125,#32),#59,.T.);
#1148=ADVANCED_FACE('',(#126),#1082,.T.);
#1149=ADVANCED_FACE('',(#127),#60,.T.);
#1150=CLOSED_SHELL('',(#1083,#1084,#1085,#1086,#1087,#1088,#1089,#1090,
#1091,#1092,#1093,#1094,#1095,#1096,#1097,#1098,#1099,#1100,#1101,#1102,
#1103,#1104,#1105,#1106,#1107,#1108,#1109,#1110,#1111,#1112,#1113,#1114,
#1115,#1116,#1117,#1118,#1119,#1120,#1121,#1122,#1123,#1124,#1125,#1126,
#1127,#1128,#1129,#1130,#1131,#1132,#1133,#1134,#1135,#1136,#1137,#1138,
#1139,#1140,#1141,#1142,#1143,#1144,#1145,#1146,#1147,#1148,#1149));
#1151=DERIVED_UNIT_ELEMENT(#1153,1.);
#1152=DERIVED_UNIT_ELEMENT(#2012,-3.);
#1153=(
MASS_UNIT()
NAMED_UNIT(*)
SI_UNIT(.KILO.,.GRAM.)
);
#1154=DERIVED_UNIT((#1151,#1152));
#1155=MEASURE_REPRESENTATION_ITEM('density measure',
POSITIVE_RATIO_MEASURE(7850.),#1154);
#1156=PROPERTY_DEFINITION_REPRESENTATION(#1161,#1158);
#1157=PROPERTY_DEFINITION_REPRESENTATION(#1162,#1159);
#1158=REPRESENTATION('material name',(#1160),#2009);
#1159=REPRESENTATION('density',(#1155),#2009);
#1160=DESCRIPTIVE_REPRESENTATION_ITEM('Steel','Steel');
#1161=PROPERTY_DEFINITION('material property','material name',#2019);
#1162=PROPERTY_DEFINITION('material property','density of part',#2019);
#1163=AXIS2_PLACEMENT_3D('',#1664,#1299,#1300);
#1164=AXIS2_PLACEMENT_3D('',#1665,#1301,#1302);
#1165=AXIS2_PLACEMENT_3D('',#1667,#1303,#1304);
#1166=AXIS2_PLACEMENT_3D('',#1670,#1306,#1307);
#1167=AXIS2_PLACEMENT_3D('',#1671,#1308,#1309);
#1168=AXIS2_PLACEMENT_3D('',#1672,#1310,#1311);
#1169=AXIS2_PLACEMENT_3D('',#1674,#1312,#1313);
#1170=AXIS2_PLACEMENT_3D('',#1677,#1315,#1316);
#1171=AXIS2_PLACEMENT_3D('',#1678,#1317,#1318);
#1172=AXIS2_PLACEMENT_3D('',#1679,#1319,#1320);
#1173=AXIS2_PLACEMENT_3D('',#1681,#1321,#1322);
#1174=AXIS2_PLACEMENT_3D('',#1684,#1324,#1325);
#1175=AXIS2_PLACEMENT_3D('',#1685,#1326,#1327);
#1176=AXIS2_PLACEMENT_3D('',#1686,#1328,#1329);
#1177=AXIS2_PLACEMENT_3D('',#1688,#1330,#1331);
#1178=AXIS2_PLACEMENT_3D('',#1691,#1333,#1334);
#1179=AXIS2_PLACEMENT_3D('',#1692,#1335,#1336);
#1180=AXIS2_PLACEMENT_3D('',#1693,#1337,#1338);
#1181=AXIS2_PLACEMENT_3D('',#1705,#1340,#1341);
#1182=AXIS2_PLACEMENT_3D('',#1707,#1343,#1344);
#1183=AXIS2_PLACEMENT_3D('',#1725,#1353,#1354);
#1184=AXIS2_PLACEMENT_3D('',#1729,#1356,#1357);
#1185=AXIS2_PLACEMENT_3D('',#1733,#1359,#1360);
#1186=AXIS2_PLACEMENT_3D('',#1736,#1362,#1363);
#1187=AXIS2_PLACEMENT_3D('',#1741,#1365,#1366);
#1188=AXIS2_PLACEMENT_3D('',#1745,#1368,#1369);
#1189=AXIS2_PLACEMENT_3D('',#1749,#1371,#1372);
#1190=AXIS2_PLACEMENT_3D('',#1752,#1374,#1375);
#1191=AXIS2_PLACEMENT_3D('',#1753,#1376,#1377);
#1192=AXIS2_PLACEMENT_3D('',#1756,#1378,#1379);
#1193=AXIS2_PLACEMENT_3D('',#1760,#1381,#1382);
#1194=AXIS2_PLACEMENT_3D('',#1762,#1384,#1385);
#1195=AXIS2_PLACEMENT_3D('',#1768,#1389,#1390);
#1196=AXIS2_PLACEMENT_3D('',#1770,#1391,#1392);
#1197=AXIS2_PLACEMENT_3D('',#1772,#1393,#1394);
#1198=AXIS2_PLACEMENT_3D('',#1774,#1396,#1397);
#1199=AXIS2_PLACEMENT_3D('',#1784,#1399,#1400);
#1200=AXIS2_PLACEMENT_3D('',#1785,#1401,#1402);
#1201=AXIS2_PLACEMENT_3D('',#1788,#1404,#1405);
#1202=AXIS2_PLACEMENT_3D('',#1790,#1407,#1408);
#1203=AXIS2_PLACEMENT_3D('',#1792,#1409,#1410);
#1204=AXIS2_PLACEMENT_3D('',#1795,#1412,#1413);
#1205=AXIS2_PLACEMENT_3D('',#1796,#1414,#1415);
#1206=AXIS2_PLACEMENT_3D('',#1799,#1418,#1419);
#1207=AXIS2_PLACEMENT_3D('',#1801,#1420,#1421);
#1208=AXIS2_PLACEMENT_3D('',#1803,#1423,#1424);
#1209=AXIS2_PLACEMENT_3D('',#1806,#1425,#1426);
#1210=AXIS2_PLACEMENT_3D('',#1808,#1427,#1428);
#1211=AXIS2_PLACEMENT_3D('',#1810,#1429,#1430);
#1212=AXIS2_PLACEMENT_3D('',#1811,#1431,#1432);
#1213=AXIS2_PLACEMENT_3D('',#1812,#1433,#1434);
#1214=AXIS2_PLACEMENT_3D('',#1815,#1435,#1436);
#1215=AXIS2_PLACEMENT_3D('',#1818,#1439,#1440);
#1216=AXIS2_PLACEMENT_3D('',#1821,#1441,#1442);
#1217=AXIS2_PLACEMENT_3D('',#1822,#1443,#1444);
#1218=AXIS2_PLACEMENT_3D('',#1823,#1445,#1446);
#1219=AXIS2_PLACEMENT_3D('',#1824,#1447,#1448);
#1220=AXIS2_PLACEMENT_3D('',#1827,#1449,#1450);
#1221=AXIS2_PLACEMENT_3D('',#1830,#1453,#1454);
#1222=AXIS2_PLACEMENT_3D('',#1833,#1455,#1456);
#1223=AXIS2_PLACEMENT_3D('',#1834,#1457,#1458);
#1224=AXIS2_PLACEMENT_3D('',#1835,#1459,#1460);
#1225=AXIS2_PLACEMENT_3D('',#1836,#1461,#1462);
#1226=AXIS2_PLACEMENT_3D('',#1839,#1463,#1464);
#1227=AXIS2_PLACEMENT_3D('',#1842,#1467,#1468);
#1228=AXIS2_PLACEMENT_3D('',#1845,#1469,#1470);
#1229=AXIS2_PLACEMENT_3D('',#1846,#1471,#1472);
#1230=AXIS2_PLACEMENT_3D('',#1847,#1473,#1474);
#1231=AXIS2_PLACEMENT_3D('',#1848,#1475,#1476);
#1232=AXIS2_PLACEMENT_3D('',#1851,#1479,#1480);
#1233=AXIS2_PLACEMENT_3D('',#1857,#1484,#1485);
#1234=AXIS2_PLACEMENT_3D('',#1860,#1487,#1488);
#1235=AXIS2_PLACEMENT_3D('',#1861,#1489,#1490);
#1236=AXIS2_PLACEMENT_3D('',#1865,#1493,#1494);
#1237=AXIS2_PLACEMENT_3D('',#1868,#1496,#1497);
#1238=AXIS2_PLACEMENT_3D('',#1869,#1498,#1499);
#1239=AXIS2_PLACEMENT_3D('',#1872,#1500,#1501);
#1240=AXIS2_PLACEMENT_3D('',#1876,#1503,#1504);
#1241=AXIS2_PLACEMENT_3D('',#1880,#1506,#1507);
#1242=AXIS2_PLACEMENT_3D('',#1884,#1509,#1510);
#1243=AXIS2_PLACEMENT_3D('',#1888,#1512,#1513);
#1244=AXIS2_PLACEMENT_3D('',#1892,#1515,#1516);
#1245=AXIS2_PLACEMENT_3D('',#1896,#1518,#1519);
#1246=AXIS2_PLACEMENT_3D('',#1900,#1521,#1522);
#1247=AXIS2_PLACEMENT_3D('',#1902,#1524,#1525);
#1248=AXIS2_PLACEMENT_3D('',#1905,#1528,#1529);
#1249=AXIS2_PLACEMENT_3D('',#1907,#1531,#1532);
#1250=AXIS2_PLACEMENT_3D('',#1910,#1535,#1536);
#1251=AXIS2_PLACEMENT_3D('',#1912,#1538,#1539);
#1252=AXIS2_PLACEMENT_3D('',#1914,#1541,#1542);
#1253=AXIS2_PLACEMENT_3D('',#1915,#1543,#1544);
#1254=AXIS2_PLACEMENT_3D('',#1917,#1546,#1547);
#1255=AXIS2_PLACEMENT_3D('',#1918,#1548,#1549);
#1256=AXIS2_PLACEMENT_3D('',#1921,#1552,#1553);
#1257=AXIS2_PLACEMENT_3D('',#1923,#1555,#1556);
#1258=AXIS2_PLACEMENT_3D('',#1926,#1559,#1560);
#1259=AXIS2_PLACEMENT_3D('',#1927,#1561,#1562);
#1260=AXIS2_PLACEMENT_3D('',#1929,#1564,#1565);
#1261=AXIS2_PLACEMENT_3D('',#1931,#1567,#1568);
#1262=AXIS2_PLACEMENT_3D('',#1933,#1570,#1571);
#1263=AXIS2_PLACEMENT_3D('',#1934,#1572,#1573);
#1264=AXIS2_PLACEMENT_3D('',#1936,#1574,#1575);
#1265=AXIS2_PLACEMENT_3D('',#1937,#1576,#1577);
#1266=AXIS2_PLACEMENT_3D('',#1938,#1578,#1579);
#1267=AXIS2_PLACEMENT_3D('',#1940,#1580,#1581);
#1268=AXIS2_PLACEMENT_3D('',#1941,#1582,#1583);
#1269=AXIS2_PLACEMENT_3D('',#1942,#1584,#1585);
#1270=AXIS2_PLACEMENT_3D('',#1945,#1586,#1587);
#1271=AXIS2_PLACEMENT_3D('',#1948,#1590,#1591);
#1272=AXIS2_PLACEMENT_3D('',#1950,#1592,#1593);
#1273=AXIS2_PLACEMENT_3D('',#1952,#1594,#1595);
#1274=AXIS2_PLACEMENT_3D('',#1953,#1596,#1597);
#1275=AXIS2_PLACEMENT_3D('',#1954,#1598,#1599);
#1276=AXIS2_PLACEMENT_3D('',#1956,#1600,#1601);
#1277=AXIS2_PLACEMENT_3D('',#1958,#1602,#1603);
#1278=AXIS2_PLACEMENT_3D('',#1959,#1604,#1605);
#1279=AXIS2_PLACEMENT_3D('',#1960,#1606,#1607);
#1280=AXIS2_PLACEMENT_3D('',#1962,#1609,#1610);
#1281=AXIS2_PLACEMENT_3D('',#1965,#1611,#1612);
#1282=AXIS2_PLACEMENT_3D('',#1968,#1615,#1616);
#1283=AXIS2_PLACEMENT_3D('',#1970,#1618,#1619);
#1284=AXIS2_PLACEMENT_3D('',#1973,#1620,#1621);
#1285=AXIS2_PLACEMENT_3D('',#1976,#1624,#1625);
#1286=AXIS2_PLACEMENT_3D('',#1978,#1627,#1628);
#1287=AXIS2_PLACEMENT_3D('',#1981,#1629,#1630);
#1288=AXIS2_PLACEMENT_3D('',#1984,#1633,#1634);
#1289=AXIS2_PLACEMENT_3D('',#1986,#1636,#1637);
#1290=AXIS2_PLACEMENT_3D('',#1988,#1639,#1640);
#1291=AXIS2_PLACEMENT_3D('',#1990,#1642,#1643);
#1292=AXIS2_PLACEMENT_3D('',#1992,#1645,#1646);
#1293=AXIS2_PLACEMENT_3D('',#1996,#1648,#1649);
#1294=AXIS2_PLACEMENT_3D('',#1999,#1651,#1652);
#1295=AXIS2_PLACEMENT_3D('',#2000,#1653,#1654);
#1296=AXIS2_PLACEMENT_3D('',#2002,#1656,#1657);
#1297=AXIS2_PLACEMENT_3D('',#2004,#1659,#1660);
#1298=AXIS2_PLACEMENT_3D('',#2006,#1662,#1663);
#1299=DIRECTION('axis',(0.,0.,1.));
#1300=DIRECTION('refdir',(1.,0.,0.));
#1301=DIRECTION('center_axis',(0.,0.,-1.));
#1302=DIRECTION('ref_axis',(1.,0.,0.));
#1303=DIRECTION('center_axis',(0.,0.,-1.));
#1304=DIRECTION('ref_axis',(1.,0.,0.));
#1305=DIRECTION('',(0.,0.,-1.));
#1306=DIRECTION('center_axis',(0.,0.,-1.));
#1307=DIRECTION('ref_axis',(1.,0.,0.));
#1308=DIRECTION('center_axis',(0.,0.,-1.));
#1309=DIRECTION('ref_axis',(1.,0.,0.));
#1310=DIRECTION('center_axis',(0.,0.,-1.));
#1311=DIRECTION('ref_axis',(1.,0.,0.));
#1312=DIRECTION('center_axis',(0.,0.,-1.));
#1313=DIRECTION('ref_axis',(1.,0.,0.));
#1314=DIRECTION('',(0.,0.,-1.));
#1315=DIRECTION('center_axis',(0.,0.,-1.));
#1316=DIRECTION('ref_axis',(1.,0.,0.));
#1317=DIRECTION('center_axis',(0.,0.,-1.));
#1318=DIRECTION('ref_axis',(1.,0.,0.));
#1319=DIRECTION('center_axis',(0.,0.,-1.));
#1320=DIRECTION('ref_axis',(1.,0.,0.));
#1321=DIRECTION('center_axis',(0.,0.,-1.));
#1322=DIRECTION('ref_axis',(1.,0.,0.));
#1323=DIRECTION('',(0.,0.,-1.));
#1324=DIRECTION('center_axis',(0.,0.,-1.));
#1325=DIRECTION('ref_axis',(1.,0.,0.));
#1326=DIRECTION('center_axis',(0.,0.,-1.));
#1327=DIRECTION('ref_axis',(1.,0.,0.));
#1328=DIRECTION('center_axis',(0.,0.,-1.));
#1329=DIRECTION('ref_axis',(1.,0.,0.));
#1330=DIRECTION('center_axis',(0.,0.,-1.));
#1331=DIRECTION('ref_axis',(1.,0.,0.));
#1332=DIRECTION('',(0.,0.,-1.));
#1333=DIRECTION('center_axis',(0.,0.,-1.));
#1334=DIRECTION('ref_axis',(1.,0.,0.));
#1335=DIRECTION('center_axis',(0.,0.,-1.));
#1336=DIRECTION('ref_axis',(1.,0.,0.));
#1337=DIRECTION('center_axis',(1.,0.,0.));
#1338=DIRECTION('ref_axis',(0.,-0.707106781186546,-0.707106781186549));
#1339=DIRECTION('',(-1.,0.,0.));
#1340=DIRECTION('center_axis',(-1.,0.,0.));
#1341=DIRECTION('ref_axis',(0.,-0.707106781186546,-0.707106781186549));
#1342=DIRECTION('',(1.,0.,0.));
#1343=DIRECTION('center_axis',(0.,0.,1.));
#1344=DIRECTION('ref_axis',(1.,0.,0.));
#1345=DIRECTION('',(3.66197947172221E-33,1.,0.));
#1346=DIRECTION('',(-1.,0.,0.));
#1347=DIRECTION('',(0.,-1.,0.));
#1348=DIRECTION('',(1.,0.,0.));
#1349=DIRECTION('',(3.66197947172221E-33,1.,0.));
#1350=DIRECTION('',(1.,0.,0.));
#1351=DIRECTION('',(0.,1.,0.));
#1352=DIRECTION('',(0.,-1.,0.));
#1353=DIRECTION('center_axis',(0.,0.,1.));
#1354=DIRECTION('ref_axis',(0.707106781186551,-0.707106781186544,0.));
#1355=DIRECTION('',(-1.,0.,0.));
#1356=DIRECTION('center_axis',(0.,0.,1.));
#1357=DIRECTION('ref_axis',(-0.707106781186541,-0.707106781186554,0.));
#1358=DIRECTION('',(0.,1.,0.));
#1359=DIRECTION('center_axis',(0.,0.,1.));
#1360=DIRECTION('ref_axis',(-0.707106781186551,0.707106781186544,0.));
#1361=DIRECTION('',(1.,0.,0.));
#1362=DIRECTION('center_axis',(0.,0.,1.));
#1363=DIRECTION('ref_axis',(0.707106781186554,0.707106781186541,0.));
#1364=DIRECTION('',(0.,-1.,0.));
#1365=DIRECTION('center_axis',(0.,0.,1.));
#1366=DIRECTION('ref_axis',(0.707106781186554,-0.707106781186541,0.));
#1367=DIRECTION('',(-1.,0.,0.));
#1368=DIRECTION('center_axis',(0.,0.,1.));
#1369=DIRECTION('ref_axis',(-0.707106781186541,-0.707106781186554,0.));
#1370=DIRECTION('',(0.,1.,0.));
#1371=DIRECTION('center_axis',(0.,0.,1.));
#1372=DIRECTION('ref_axis',(-0.707106781186554,0.707106781186541,0.));
#1373=DIRECTION('',(1.,0.,0.));
#1374=DIRECTION('center_axis',(0.,0.,1.));
#1375=DIRECTION('ref_axis',(0.707106781186554,0.707106781186541,0.));
#1376=DIRECTION('center_axis',(1.,0.,0.));
#1377=DIRECTION('ref_axis',(0.,-0.707106781186548,0.707106781186548));
#1378=DIRECTION('center_axis',(-1.,0.,0.));
#1379=DIRECTION('ref_axis',(0.,-0.707106781186548,0.707106781186548));
#1380=DIRECTION('',(1.,0.,0.));
#1381=DIRECTION('center_axis',(1.,-3.66197947172221E-33,0.));
#1382=DIRECTION('ref_axis',(0.,-0.707106781186548,0.707106781186548));
#1383=DIRECTION('',(-1.,0.,0.));
#1384=DIRECTION('center_axis',(0.,0.,1.));
#1385=DIRECTION('ref_axis',(0.,1.,0.));
#1386=DIRECTION('',(0.,-1.,0.));
#1387=DIRECTION('',(-1.,0.,0.));
#1388=DIRECTION('',(3.66197947172221E-33,1.,0.));
#1389=DIRECTION('center_axis',(-1.,0.,0.));
#1390=DIRECTION('ref_axis',(0.,0.707106781186548,0.707106781186548));
#1391=DIRECTION('center_axis',(1.,-3.66197947172221E-33,0.));
#1392=DIRECTION('ref_axis',(0.,0.707106781186548,0.707106781186548));
#1393=DIRECTION('center_axis',(-1.,0.,0.));
#1394=DIRECTION('ref_axis',(0.,0.707106781186548,0.707106781186548));
#1395=DIRECTION('',(1.,0.,0.));
#1396=DIRECTION('center_axis',(-1.,0.,0.));
#1397=DIRECTION('ref_axis',(0.,0.707106781186546,-0.707106781186549));
#1398=DIRECTION('',(-1.,0.,0.));
#1399=DIRECTION('center_axis',(-1.,0.,0.));
#1400=DIRECTION('ref_axis',(0.,0.707106781186546,-0.707106781186549));
#1401=DIRECTION('center_axis',(0.,1.,0.));
#1402=DIRECTION('ref_axis',(0.,0.,-1.));
#1403=DIRECTION('',(0.,0.,1.));
#1404=DIRECTION('center_axis',(0.,1.,0.));
#1405=DIRECTION('ref_axis',(-0.707106781186548,0.,-0.707106781186547));
#1406=DIRECTION('',(0.,0.,-1.));
#1407=DIRECTION('center_axis',(-3.66197947172221E-33,-1.,0.));
#1408=DIRECTION('ref_axis',(-0.707106781186548,0.,-0.707106781186547));
#1409=DIRECTION('center_axis',(0.,-1.,0.));
#1410=DIRECTION('ref_axis',(-0.707106781186548,0.,-0.707106781186547));
#1411=DIRECTION('',(-3.66197947172221E-33,-1.,0.));
#1412=DIRECTION('center_axis',(0.,1.,0.));
#1413=DIRECTION('ref_axis',(-1.,0.,0.));
#1414=DIRECTION('center_axis',(0.,-1.,0.));
#1415=DIRECTION('ref_axis',(0.,0.,1.));
#1416=DIRECTION('',(0.,0.,-1.));
#1417=DIRECTION('',(0.,0.,1.));
#1418=DIRECTION('center_axis',(-3.66197947172221E-33,-1.,0.));
#1419=DIRECTION('ref_axis',(-0.707106781186548,0.,-0.707106781186547));
#1420=DIRECTION('center_axis',(0.,-1.,0.));
#1421=DIRECTION('ref_axis',(0.,0.,-1.));
#1422=DIRECTION('',(-3.66197947172221E-33,-1.,0.));
#1423=DIRECTION('center_axis',(0.,0.,1.));
#1424=DIRECTION('ref_axis',(1.,0.,0.));
#1425=DIRECTION('center_axis',(0.,1.,0.));
#1426=DIRECTION('ref_axis',(1.,0.,0.));
#1427=DIRECTION('center_axis',(0.,0.,1.));
#1428=DIRECTION('ref_axis',(0.707106781186547,0.707106781186548,0.));
#1429=DIRECTION('center_axis',(1.,0.,0.));
#1430=DIRECTION('ref_axis',(0.,0.,-1.));
#1431=DIRECTION('center_axis',(0.,0.,-1.));
#1432=DIRECTION('ref_axis',(0.707106781186547,0.707106781186548,0.));
#1433=DIRECTION('center_axis',(1.,0.,0.));
#1434=DIRECTION('ref_axis',(0.,0.707106781186553,-0.707106781186543));
#1435=DIRECTION('center_axis',(1.,-2.22044604925032E-15,0.));
#1436=DIRECTION('ref_axis',(0.,0.,-1.));
#1437=DIRECTION('',(1.,0.,0.));
#1438=DIRECTION('',(-1.,0.,0.));
#1439=DIRECTION('center_axis',(0.,0.,1.));
#1440=DIRECTION('ref_axis',(1.,0.,0.));
#1441=DIRECTION('center_axis',(0.,1.,0.));
#1442=DIRECTION('ref_axis',(0.,0.,-1.));
#1443=DIRECTION('center_axis',(0.,0.,-1.));
#1444=DIRECTION('ref_axis',(-0.707106781186547,0.707106781186548,0.));
#1445=DIRECTION('center_axis',(0.,0.,1.));
#1446=DIRECTION('ref_axis',(-0.707106781186547,0.707106781186548,0.));
#1447=DIRECTION('center_axis',(0.,1.,0.));
#1448=DIRECTION('ref_axis',(-0.707106781186546,0.,-0.707106781186549));
#1449=DIRECTION('center_axis',(8.88178419700126E-15,1.,0.));
#1450=DIRECTION('ref_axis',(0.,0.,-1.));
#1451=DIRECTION('',(0.,1.,0.));
#1452=DIRECTION('',(0.,-1.,0.));
#1453=DIRECTION('center_axis',(0.,0.,1.));
#1454=DIRECTION('ref_axis',(1.,0.,0.));
#1455=DIRECTION('center_axis',(-1.,5.55111512312579E-16,0.));
#1456=DIRECTION('ref_axis',(0.,0.,-1.));
#1457=DIRECTION('center_axis',(0.,0.,-1.));
#1458=DIRECTION('ref_axis',(-0.707106781186548,-0.707106781186547,0.));
#1459=DIRECTION('center_axis',(0.,0.,1.));
#1460=DIRECTION('ref_axis',(-0.707106781186548,-0.707106781186547,0.));
#1461=DIRECTION('center_axis',(-1.,-4.9453141408693E-17,0.));
#1462=DIRECTION('ref_axis',(0.,-0.707106781186548,-0.707106781186547));
#1463=DIRECTION('center_axis',(-1.,0.,0.));
#1464=DIRECTION('ref_axis',(0.,0.,-1.));
#1465=DIRECTION('',(-1.,-4.9453141408693E-17,0.));
#1466=DIRECTION('',(1.,4.9453141408693E-17,0.));
#1467=DIRECTION('center_axis',(0.,0.,1.));
#1468=DIRECTION('ref_axis',(1.,0.,0.));
#1469=DIRECTION('center_axis',(-5.5511151231259E-16,-1.,0.));
#1470=DIRECTION('ref_axis',(0.,0.,-1.));
#1471=DIRECTION('center_axis',(0.,0.,-1.));
#1472=DIRECTION('ref_axis',(0.707106781186547,-0.707106781186547,0.));
#1473=DIRECTION('center_axis',(0.,0.,1.));
#1474=DIRECTION('ref_axis',(0.707106781186547,-0.707106781186547,0.));
#1475=DIRECTION('center_axis',(0.,-1.,0.));
#1476=DIRECTION('ref_axis',(0.707106781186553,0.,-0.707106781186543));
#1477=DIRECTION('',(0.,1.,0.));
#1478=DIRECTION('',(0.,-1.,0.));
#1479=DIRECTION('center_axis',(4.9453141408693E-17,-1.,0.));
#1480=DIRECTION('ref_axis',(1.,4.9453141408693E-17,0.));
#1481=DIRECTION('',(0.,0.,1.));
#1482=DIRECTION('',(1.,4.9453141408693E-17,0.));
#1483=DIRECTION('',(0.,0.,1.));
#1484=DIRECTION('center_axis',(0.,0.,1.));
#1485=DIRECTION('ref_axis',(0.,-1.,0.));
#1486=DIRECTION('',(0.,0.,1.));
#1487=DIRECTION('center_axis',(0.,0.,1.));
#1488=DIRECTION('ref_axis',(0.,-1.,0.));
#1489=DIRECTION('center_axis',(1.,0.,0.));
#1490=DIRECTION('ref_axis',(0.,1.,0.));
#1491=DIRECTION('',(0.,0.,1.));
#1492=DIRECTION('',(0.,1.,0.));
#1493=DIRECTION('center_axis',(0.,0.,1.));
#1494=DIRECTION('ref_axis',(1.,0.,0.));
#1495=DIRECTION('',(0.,0.,1.));
#1496=DIRECTION('center_axis',(0.,0.,1.));
#1497=DIRECTION('ref_axis',(1.,0.,0.));
#1498=DIRECTION('center_axis',(0.,0.,1.));
#1499=DIRECTION('ref_axis',(1.,0.,0.));
#1500=DIRECTION('center_axis',(0.,0.,-1.));
#1501=DIRECTION('ref_axis',(0.707106781186554,0.707106781186541,0.));
#1502=DIRECTION('',(1.,0.,0.));
#1503=DIRECTION('center_axis',(0.,0.,-1.));
#1504=DIRECTION('ref_axis',(-0.707106781186554,0.707106781186541,0.));
#1505=DIRECTION('',(0.,1.,0.));
#1506=DIRECTION('center_axis',(0.,0.,-1.));
#1507=DIRECTION('ref_axis',(-0.707106781186541,-0.707106781186554,0.));
#1508=DIRECTION('',(-1.,0.,0.));
#1509=DIRECTION('center_axis',(0.,0.,-1.));
#1510=DIRECTION('ref_axis',(0.707106781186554,-0.707106781186541,0.));
#1511=DIRECTION('',(0.,-1.,0.));
#1512=DIRECTION('center_axis',(0.,0.,-1.));
#1513=DIRECTION('ref_axis',(0.707106781186554,0.707106781186541,0.));
#1514=DIRECTION('',(1.,0.,0.));
#1515=DIRECTION('center_axis',(0.,0.,-1.));
#1516=DIRECTION('ref_axis',(-0.707106781186551,0.707106781186544,0.));
#1517=DIRECTION('',(0.,1.,0.));
#1518=DIRECTION('center_axis',(0.,0.,-1.));
#1519=DIRECTION('ref_axis',(-0.707106781186541,-0.707106781186554,0.));
#1520=DIRECTION('',(-1.,0.,0.));
#1521=DIRECTION('center_axis',(0.,0.,-1.));
#1522=DIRECTION('ref_axis',(0.707106781186551,-0.707106781186544,0.));
#1523=DIRECTION('',(0.,-1.,0.));
#1524=DIRECTION('center_axis',(0.,0.,1.));
#1525=DIRECTION('ref_axis',(-0.707106781186541,-0.707106781186554,0.));
#1526=DIRECTION('',(0.,0.,1.));
#1527=DIRECTION('',(0.,0.,-1.));
#1528=DIRECTION('center_axis',(1.,0.,0.));
#1529=DIRECTION('ref_axis',(0.,1.,0.));
#1530=DIRECTION('',(0.,0.,-1.));
#1531=DIRECTION('center_axis',(0.,0.,1.));
#1532=DIRECTION('ref_axis',(0.707106781186554,0.707106781186541,0.));
#1533=DIRECTION('',(0.,0.,1.));
#1534=DIRECTION('',(0.,0.,-1.));
#1535=DIRECTION('center_axis',(-1.,0.,0.));
#1536=DIRECTION('ref_axis',(0.,-1.,0.));
#1537=DIRECTION('',(0.,0.,-1.));
#1538=DIRECTION('center_axis',(0.,0.,1.));
#1539=DIRECTION('ref_axis',(0.707106781186554,-0.707106781186541,0.));
#1540=DIRECTION('',(0.,0.,1.));
#1541=DIRECTION('center_axis',(0.,1.,0.));
#1542=DIRECTION('ref_axis',(-1.,0.,0.));
#1543=DIRECTION('center_axis',(0.,0.,1.));
#1544=DIRECTION('ref_axis',(-0.707106781186554,0.707106781186541,0.));
#1545=DIRECTION('',(0.,0.,1.));
#1546=DIRECTION('center_axis',(0.,-1.,0.));
#1547=DIRECTION('ref_axis',(1.,0.,0.));
#1548=DIRECTION('center_axis',(0.,0.,1.));
#1549=DIRECTION('ref_axis',(-0.707106781186551,0.707106781186544,0.));
#1550=DIRECTION('',(0.,0.,1.));
#1551=DIRECTION('',(0.,0.,-1.));
#1552=DIRECTION('center_axis',(0.,-1.,0.));
#1553=DIRECTION('ref_axis',(1.,0.,0.));
#1554=DIRECTION('',(0.,0.,-1.));
#1555=DIRECTION('center_axis',(0.,0.,1.));
#1556=DIRECTION('ref_axis',(-0.707106781186541,-0.707106781186554,0.));
#1557=DIRECTION('',(0.,0.,1.));
#1558=DIRECTION('',(0.,0.,-1.));
#1559=DIRECTION('center_axis',(1.,0.,0.));
#1560=DIRECTION('ref_axis',(0.,1.,0.));
#1561=DIRECTION('center_axis',(0.,0.,1.));
#1562=DIRECTION('ref_axis',(0.707106781186554,0.707106781186541,0.));
#1563=DIRECTION('',(0.,0.,1.));
#1564=DIRECTION('center_axis',(-1.,0.,0.));
#1565=DIRECTION('ref_axis',(0.,-1.,0.));
#1566=DIRECTION('',(0.,0.,-1.));
#1567=DIRECTION('center_axis',(0.,0.,1.));
#1568=DIRECTION('ref_axis',(0.707106781186551,-0.707106781186544,0.));
#1569=DIRECTION('',(0.,0.,1.));
#1570=DIRECTION('center_axis',(0.,1.,0.));
#1571=DIRECTION('ref_axis',(-1.,0.,0.));
#1572=DIRECTION('center_axis',(0.408248290463863,-0.408248290463863,-0.816496580927726));
#1573=DIRECTION('ref_axis',(-0.577350269189626,0.577350269189626,-0.577350269189625));
#1574=DIRECTION('center_axis',(0.,0.,1.));
#1575=DIRECTION('ref_axis',(-1.,0.,0.));
#1576=DIRECTION('center_axis',(1.,0.,1.11022302462516E-15));
#1577=DIRECTION('ref_axis',(0.,1.,0.));
#1578=DIRECTION('center_axis',(0.408248290463863,0.408248290463862,-0.816496580927726));
#1579=DIRECTION('ref_axis',(-0.577350269189626,-0.577350269189626,-0.577350269189626));
#1580=DIRECTION('center_axis',(1.,0.,0.));
#1581=DIRECTION('ref_axis',(0.,0.,-1.));
#1582=DIRECTION('center_axis',(0.,0.,1.));
#1583=DIRECTION('ref_axis',(0.,-1.,0.));
#1584=DIRECTION('center_axis',(0.,0.,1.));
#1585=DIRECTION('ref_axis',(-0.707106781186548,-0.707106781186547,0.));
#1586=DIRECTION('center_axis',(0.,0.,1.));
#1587=DIRECTION('ref_axis',(-0.707106781186548,-0.707106781186547,0.));
#1588=DIRECTION('',(0.,0.,-1.));
#1589=DIRECTION('',(0.,0.,1.));
#1590=DIRECTION('center_axis',(0.408248290463861,-0.816496580927728,-0.408248290463861));
#1591=DIRECTION('ref_axis',(0.577350269189625,0.577350269189625,-0.577350269189628));
#1592=DIRECTION('center_axis',(-1.,0.,0.));
#1593=DIRECTION('ref_axis',(0.,0.,-1.));
#1594=DIRECTION('center_axis',(0.,-1.,4.44089209850063E-15));
#1595=DIRECTION('ref_axis',(1.,0.,0.));
#1596=DIRECTION('center_axis',(0.,0.,1.));
#1597=DIRECTION('ref_axis',(0.,1.,0.));
#1598=DIRECTION('center_axis',(-0.40824829046386,-0.816496580927727,0.408248290463864));
#1599=DIRECTION('ref_axis',(0.577350269189623,-0.577350269189627,-0.577350269189627));
#1600=DIRECTION('center_axis',(0.,1.,0.));
#1601=DIRECTION('ref_axis',(0.,0.,-1.));
#1602=DIRECTION('center_axis',(-1.,0.,0.));
#1603=DIRECTION('ref_axis',(0.,-1.,0.));
#1604=DIRECTION('center_axis',(0.,0.,1.));
#1605=DIRECTION('ref_axis',(1.,0.,0.));
#1606=DIRECTION('center_axis',(1.,0.,0.));
#1607=DIRECTION('ref_axis',(0.,-0.707106781186548,-0.707106781186548));
#1608=DIRECTION('',(1.,0.,0.));
#1609=DIRECTION('center_axis',(0.,0.,1.));
#1610=DIRECTION('ref_axis',(0.707106781186546,-0.707106781186549,0.));
#1611=DIRECTION('center_axis',(0.,0.,1.));
#1612=DIRECTION('ref_axis',(0.707106781186546,-0.707106781186549,0.));
#1613=DIRECTION('',(0.,0.,-1.));
#1614=DIRECTION('',(0.,0.,1.));
#1615=DIRECTION('center_axis',(0.,1.,0.));
#1616=DIRECTION('ref_axis',(0.707106781186546,0.,-0.707106781186549));
#1617=DIRECTION('',(0.,1.,0.));
#1618=DIRECTION('center_axis',(0.,0.,1.));
#1619=DIRECTION('ref_axis',(0.707106781186548,0.707106781186548,0.));
#1620=DIRECTION('center_axis',(0.,0.,1.));
#1621=DIRECTION('ref_axis',(0.707106781186548,0.707106781186548,0.));
#1622=DIRECTION('',(0.,0.,-1.));
#1623=DIRECTION('',(0.,0.,1.));
#1624=DIRECTION('center_axis',(-1.,0.,0.));
#1625=DIRECTION('ref_axis',(0.,0.707106781186549,-0.707106781186546));
#1626=DIRECTION('',(-1.,0.,0.));
#1627=DIRECTION('center_axis',(0.,0.,1.));
#1628=DIRECTION('ref_axis',(-0.707106781186546,0.707106781186549,0.));
#1629=DIRECTION('center_axis',(0.,0.,1.));
#1630=DIRECTION('ref_axis',(-0.707106781186546,0.707106781186549,0.));
#1631=DIRECTION('',(0.,0.,-1.));
#1632=DIRECTION('',(0.,0.,1.));
#1633=DIRECTION('center_axis',(0.,-1.,0.));
#1634=DIRECTION('ref_axis',(1.,0.,0.));
#1635=DIRECTION('',(1.,0.,0.));
#1636=DIRECTION('center_axis',(-1.,0.,0.));
#1637=DIRECTION('ref_axis',(0.,-1.,0.));
#1638=DIRECTION('',(0.,-1.,0.));
#1639=DIRECTION('center_axis',(0.,1.,0.));
#1640=DIRECTION('ref_axis',(-1.,0.,0.));
#1641=DIRECTION('',(-1.,0.,0.));
#1642=DIRECTION('center_axis',(1.,-3.66197947172221E-33,0.));
#1643=DIRECTION('ref_axis',(3.66197947172221E-33,1.,0.));
#1644=DIRECTION('',(3.66197947172221E-33,1.,0.));
#1645=DIRECTION('center_axis',(0.,0.,1.));
#1646=DIRECTION('ref_axis',(1.,0.,0.));
#1647=DIRECTION('',(-1.,0.,0.));
#1648=DIRECTION('center_axis',(0.,0.,1.));
#1649=DIRECTION('ref_axis',(0.,1.,0.));
#1650=DIRECTION('',(0.,-1.,0.));
#1651=DIRECTION('center_axis',(0.,0.,1.));
#1652=DIRECTION('ref_axis',(-1.,0.,0.));
#1653=DIRECTION('center_axis',(0.,0.,1.));
#1654=DIRECTION('ref_axis',(-1.,0.,0.));
#1655=DIRECTION('',(0.,0.,1.));
#1656=DIRECTION('center_axis',(-1.,0.,0.));
#1657=DIRECTION('ref_axis',(0.,-1.,0.));
#1658=DIRECTION('',(0.,0.,1.));
#1659=DIRECTION('center_axis',(0.,0.,1.));
#1660=DIRECTION('ref_axis',(0.,1.,0.));
#1661=DIRECTION('',(0.,0.,1.));
#1662=DIRECTION('center_axis',(0.,1.,0.));
#1663=DIRECTION('ref_axis',(-1.,0.,0.));
#1664=CARTESIAN_POINT('',(0.,0.,0.));
#1665=CARTESIAN_POINT('Origin',(-2.,58.8,11.));
#1666=CARTESIAN_POINT('',(-4.35000000000001,58.8,13.));
#1667=CARTESIAN_POINT('Origin',(-2.,58.8,13.));
#1668=CARTESIAN_POINT('',(-4.35000000000001,58.8,9.));
#1669=CARTESIAN_POINT('',(-4.35000000000001,58.8,11.));
#1670=CARTESIAN_POINT('Origin',(-2.,58.8,9.));
#1671=CARTESIAN_POINT('Origin',(-2.,58.8,9.));
#1672=CARTESIAN_POINT('Origin',(-2.00000000000001,-2.00000000000001,11.));
#1673=CARTESIAN_POINT('',(-4.35000000000001,-2.00000000000001,13.));
#1674=CARTESIAN_POINT('Origin',(-2.00000000000001,-2.00000000000001,13.));
#1675=CARTESIAN_POINT('',(-4.35000000000001,-2.00000000000001,9.));
#1676=CARTESIAN_POINT('',(-4.35000000000001,-2.00000000000001,11.));
#1677=CARTESIAN_POINT('Origin',(-2.00000000000001,-2.00000000000001,9.));
#1678=CARTESIAN_POINT('Origin',(-2.00000000000001,-2.00000000000001,9.));
#1679=CARTESIAN_POINT('Origin',(87.8,58.8,11.));
#1680=CARTESIAN_POINT('',(85.45,58.8,13.));
#1681=CARTESIAN_POINT('Origin',(87.8,58.8,13.));
#1682=CARTESIAN_POINT('',(85.45,58.8,9.));
#1683=CARTESIAN_POINT('',(85.45,58.8,11.));
#1684=CARTESIAN_POINT('Origin',(87.8,58.8,9.));
#1685=CARTESIAN_POINT('Origin',(87.8,58.8,9.));
#1686=CARTESIAN_POINT('Origin',(87.8,-1.99999999999998,11.));
#1687=CARTESIAN_POINT('',(85.45,-1.99999999999998,13.));
#1688=CARTESIAN_POINT('Origin',(87.8,-1.99999999999998,13.));
#1689=CARTESIAN_POINT('',(85.45,-1.99999999999998,9.));
#1690=CARTESIAN_POINT('',(85.45,-1.99999999999998,11.));
#1691=CARTESIAN_POINT('Origin',(87.8,-1.99999999999998,9.));
#1692=CARTESIAN_POINT('Origin',(87.8,-1.99999999999998,9.));
#1693=CARTESIAN_POINT('Origin',(21.45,23.9,3.5));
#1694=CARTESIAN_POINT('',(0.677124344467705,23.4,3.5));
#1695=CARTESIAN_POINT('',(2.,23.9,3.));
#1696=CARTESIAN_POINT('Ctrl Pts',(0.677124344467704,23.4,3.5));
#1697=CARTESIAN_POINT('Ctrl Pts',(0.841539222743561,23.4,3.35499970674771));
#1698=CARTESIAN_POINT('Ctrl Pts',(1.05858081962502,23.4693631464516,3.22353007236186));
#1699=CARTESIAN_POINT('Ctrl Pts',(1.47982514628214,23.6400890089668,3.05280420984661));
#1700=CARTESIAN_POINT('Ctrl Pts',(1.76180306865643,23.7809015343282,3.));
#1701=CARTESIAN_POINT('Ctrl Pts',(2.,23.9,3.));
#1702=CARTESIAN_POINT('',(-7.,23.9,3.));
#1703=CARTESIAN_POINT('',(21.45,23.9,3.));
#1704=CARTESIAN_POINT('',(-7.,23.4,3.5));
#1705=CARTESIAN_POINT('Origin',(-7.,23.9,3.5));
#1706=CARTESIAN_POINT('',(21.45,23.4,3.5));
#1707=CARTESIAN_POINT('Origin',(42.9,28.4,3.));
#1708=CARTESIAN_POINT('',(2.,2.,3.));
#1709=CARTESIAN_POINT('',(2.,14.2,3.));
#1710=CARTESIAN_POINT('',(83.8,2.,3.));
#1711=CARTESIAN_POINT('',(64.35,2.,3.));
#1712=CARTESIAN_POINT('',(83.8,54.8,3.));
#1713=CARTESIAN_POINT('',(83.8,42.6,3.));
#1714=CARTESIAN_POINT('',(2.,54.8,3.));
#1715=CARTESIAN_POINT('',(21.45,54.8,3.));
#1716=CARTESIAN_POINT('',(2.,35.9,3.));
#1717=CARTESIAN_POINT('',(2.,14.2,3.));
#1718=CARTESIAN_POINT('',(-7.,35.9,3.));
#1719=CARTESIAN_POINT('',(21.45,35.9,3.));
#1720=CARTESIAN_POINT('',(-7.,47.6,3.));
#1721=CARTESIAN_POINT('',(80.9,17.9,3.));
#1722=CARTESIAN_POINT('',(80.9,16.4,3.));
#1723=CARTESIAN_POINT('',(80.9,18.4,3.));
#1724=CARTESIAN_POINT('',(80.4,15.9,3.));
#1725=CARTESIAN_POINT('Origin',(80.4,16.4,3.));
#1726=CARTESIAN_POINT('',(46.4,15.9,3.));
#1727=CARTESIAN_POINT('',(80.9,15.9,3.));
#1728=CARTESIAN_POINT('',(45.9,16.4,3.));
#1729=CARTESIAN_POINT('Origin',(46.4,16.4,3.));
#1730=CARTESIAN_POINT('',(45.9,17.9,3.));
#1731=CARTESIAN_POINT('',(45.9,15.9,3.));
#1732=CARTESIAN_POINT('',(46.4,18.4,3.));
#1733=CARTESIAN_POINT('Origin',(46.4,17.9,3.));
#1734=CARTESIAN_POINT('',(80.4,18.4,3.));
#1735=CARTESIAN_POINT('',(45.9,18.4,3.));
#1736=CARTESIAN_POINT('Origin',(80.4,17.9,3.));
#1737=CARTESIAN_POINT('',(80.9,37.4,3.));
#1738=CARTESIAN_POINT('',(80.9,35.4,3.));
#1739=CARTESIAN_POINT('',(80.9,37.9,3.));
#1740=CARTESIAN_POINT('',(80.4,34.9,3.));
#1741=CARTESIAN_POINT('Origin',(80.4,35.4,3.));
#1742=CARTESIAN_POINT('',(55.4,34.9,3.));
#1743=CARTESIAN_POINT('',(80.9,34.9,3.));
#1744=CARTESIAN_POINT('',(54.9,35.4,3.));
#1745=CARTESIAN_POINT('Origin',(55.4,35.4,3.));
#1746=CARTESIAN_POINT('',(54.9,37.4,3.));
#1747=CARTESIAN_POINT('',(54.9,34.9,3.));
#1748=CARTESIAN_POINT('',(55.4,37.9,3.));
#1749=CARTESIAN_POINT('Origin',(55.4,37.4,3.));
#1750=CARTESIAN_POINT('',(80.4,37.9,3.));
#1751=CARTESIAN_POINT('',(54.9,37.9,3.));
#1752=CARTESIAN_POINT('Origin',(80.4,37.4,3.));
#1753=CARTESIAN_POINT('Origin',(0.,23.9,10.));
#1754=CARTESIAN_POINT('',(-7.,23.4,10.));
#1755=CARTESIAN_POINT('',(-7.,23.9,10.5));
#1756=CARTESIAN_POINT('Origin',(-7.,23.9,10.));
#1757=CARTESIAN_POINT('',(8.75213093741608E-32,23.9,10.5));
#1758=CARTESIAN_POINT('',(0.,23.9,10.5));
#1759=CARTESIAN_POINT('',(8.56903196382997E-32,23.4,10.));
#1760=CARTESIAN_POINT('Origin',(0.,23.9,10.));
#1761=CARTESIAN_POINT('',(0.,23.4,10.));
#1762=CARTESIAN_POINT('Origin',(0.,23.4,10.5));
#1763=CARTESIAN_POINT('',(-7.,35.9,10.5));
#1764=CARTESIAN_POINT('',(-7.,41.1,10.5));
#1765=CARTESIAN_POINT('',(1.31465063034827E-31,35.9,10.5));
#1766=CARTESIAN_POINT('',(0.,35.9,10.5));
#1767=CARTESIAN_POINT('',(4.28451598191498E-32,11.7,10.5));
#1768=CARTESIAN_POINT('Origin',(0.,35.9,10.));
#1769=CARTESIAN_POINT('',(1.33296052770688E-31,36.4,10.));
#1770=CARTESIAN_POINT('Origin',(0.,35.9,10.));
#1771=CARTESIAN_POINT('',(-7.,36.4,10.));
#1772=CARTESIAN_POINT('Origin',(-7.,35.9,10.));
#1773=CARTESIAN_POINT('',(0.,36.4,10.));
#1774=CARTESIAN_POINT('Origin',(21.45,35.9,3.5));
#1775=CARTESIAN_POINT('',(0.677124344467705,36.4,3.5));
#1776=CARTESIAN_POINT('Ctrl Pts',(2.,35.9,3.));
#1777=CARTESIAN_POINT('Ctrl Pts',(1.76180306865643,36.0190984656718,3.));
#1778=CARTESIAN_POINT('Ctrl Pts',(1.47982514628214,36.1599109910332,3.05280420984661));
#1779=CARTESIAN_POINT('Ctrl Pts',(1.05858081962502,36.3306368535484,3.22353007236186));
#1780=CARTESIAN_POINT('Ctrl Pts',(0.841539222743561,36.4,3.35499970674771));
#1781=CARTESIAN_POINT('Ctrl Pts',(0.677124344467704,36.4,3.5));
#1782=CARTESIAN_POINT('',(-7.,36.4,3.5));
#1783=CARTESIAN_POINT('',(21.45,36.4,3.5));
#1784=CARTESIAN_POINT('Origin',(-7.,35.9,3.5));
#1785=CARTESIAN_POINT('Origin',(0.,36.4,10.5));
#1786=CARTESIAN_POINT('',(-7.,36.4,5.25));
#1787=CARTESIAN_POINT('',(1.33296052770688E-31,36.4,5.));
#1788=CARTESIAN_POINT('Origin',(2.,36.4,5.));
#1789=CARTESIAN_POINT('',(1.33296052770688E-31,36.4,5.25));
#1790=CARTESIAN_POINT('Origin',(2.,14.2,5.));
#1791=CARTESIAN_POINT('',(8.56903196382997E-32,23.4,5.));
#1792=CARTESIAN_POINT('Origin',(2.,23.4,5.));
#1793=CARTESIAN_POINT('',(0.,2.,5.));
#1794=CARTESIAN_POINT('',(0.,14.2,5.));
#1795=CARTESIAN_POINT('Origin',(2.,2.,5.));
#1796=CARTESIAN_POINT('Origin',(0.,23.4,3.));
#1797=CARTESIAN_POINT('',(-7.,23.4,1.5));
#1798=CARTESIAN_POINT('',(8.56903196382997E-32,23.4,1.5));
#1799=CARTESIAN_POINT('Origin',(2.,14.2,5.));
#1800=CARTESIAN_POINT('',(1.48676366551922E-31,54.8,5.));
#1801=CARTESIAN_POINT('Origin',(2.,54.8,5.));
#1802=CARTESIAN_POINT('',(0.,14.2,5.));
#1803=CARTESIAN_POINT('Origin',(87.8,58.8,0.5));
#1804=CARTESIAN_POINT('',(92.8,58.8,0.5));
#1805=CARTESIAN_POINT('',(92.3,58.8,0.));
#1806=CARTESIAN_POINT('Origin',(92.3,58.8,0.5));
#1807=CARTESIAN_POINT('',(87.8,63.3,0.));
#1808=CARTESIAN_POINT('Origin',(87.8,58.8,0.));
#1809=CARTESIAN_POINT('',(87.8,63.8,0.5));
#1810=CARTESIAN_POINT('Origin',(87.8,63.3,0.5));
#1811=CARTESIAN_POINT('Origin',(87.8,58.8,0.5));
#1812=CARTESIAN_POINT('Origin',(65.35,63.3,0.5));
#1813=CARTESIAN_POINT('',(-2.,63.3,0.));
#1814=CARTESIAN_POINT('',(-2.,63.8,0.5));
#1815=CARTESIAN_POINT('Origin',(-2.,63.3,0.5));
#1816=CARTESIAN_POINT('',(65.35,63.8,0.5));
#1817=CARTESIAN_POINT('',(65.35,63.3,0.));
#1818=CARTESIAN_POINT('Origin',(-2.,58.8,0.5));
#1819=CARTESIAN_POINT('',(-6.5,58.8,0.));
#1820=CARTESIAN_POINT('',(-7.,58.8,0.5));
#1821=CARTESIAN_POINT('Origin',(-6.5,58.8,0.5));
#1822=CARTESIAN_POINT('Origin',(-2.,58.8,0.5));
#1823=CARTESIAN_POINT('Origin',(-2.,58.8,0.));
#1824=CARTESIAN_POINT('Origin',(-6.5,43.6,0.5));
#1825=CARTESIAN_POINT('',(-6.5,-2.00000000000001,0.));
#1826=CARTESIAN_POINT('',(-7.,-2.00000000000001,0.5));
#1827=CARTESIAN_POINT('Origin',(-6.5,-2.00000000000001,0.5));
#1828=CARTESIAN_POINT('',(-7.,43.6,0.5));
#1829=CARTESIAN_POINT('',(-6.5,43.6,0.));
#1830=CARTESIAN_POINT('Origin',(-2.00000000000001,-2.00000000000001,0.5));
#1831=CARTESIAN_POINT('',(-2.00000000000001,-6.5,0.));
#1832=CARTESIAN_POINT('',(-2.00000000000001,-7.,0.5));
#1833=CARTESIAN_POINT('Origin',(-2.00000000000001,-6.5,0.5));
#1834=CARTESIAN_POINT('Origin',(-2.00000000000001,-2.00000000000001,0.5));
#1835=CARTESIAN_POINT('Origin',(-2.00000000000001,-2.00000000000001,0.));
#1836=CARTESIAN_POINT('Origin',(20.45,-6.5,0.5));
#1837=CARTESIAN_POINT('',(87.8,-6.5,0.));
#1838=CARTESIAN_POINT('',(87.8,-7.,0.5));
#1839=CARTESIAN_POINT('Origin',(87.8,-6.5,0.5));
#1840=CARTESIAN_POINT('',(20.45,-7.,0.5));
#1841=CARTESIAN_POINT('',(20.45,-6.5,0.));
#1842=CARTESIAN_POINT('Origin',(87.8,-1.99999999999998,0.5));
#1843=CARTESIAN_POINT('',(92.3,-1.99999999999998,0.));
#1844=CARTESIAN_POINT('',(92.8,-1.99999999999998,0.5));
#1845=CARTESIAN_POINT('Origin',(92.3,-1.99999999999998,0.5));
#1846=CARTESIAN_POINT('Origin',(87.8,-1.99999999999998,0.5));
#1847=CARTESIAN_POINT('Origin',(87.8,-1.99999999999998,0.));
#1848=CARTESIAN_POINT('Origin',(92.3,13.2,0.5));
#1849=CARTESIAN_POINT('',(92.3,13.2,0.));
#1850=CARTESIAN_POINT('',(92.8,13.2,0.5));
#1851=CARTESIAN_POINT('Origin',(-2.00000000000001,-7.,0.));
#1852=CARTESIAN_POINT('',(87.8,-7.,13.));
#1853=CARTESIAN_POINT('',(87.8,-7.,0.));
#1854=CARTESIAN_POINT('',(-2.00000000000001,-7.,13.));
#1855=CARTESIAN_POINT('',(87.8,-7.,13.));
#1856=CARTESIAN_POINT('',(-2.00000000000001,-7.,0.));
#1857=CARTESIAN_POINT('Origin',(87.8,-1.99999999999998,0.));
#1858=CARTESIAN_POINT('',(92.8,-1.99999999999998,13.));
#1859=CARTESIAN_POINT('',(92.8,-1.99999999999998,0.));
#1860=CARTESIAN_POINT('Origin',(87.8,-1.99999999999998,13.));
#1861=CARTESIAN_POINT('Origin',(92.8,-1.99999999999998,0.));
#1862=CARTESIAN_POINT('',(92.8,58.8,13.));
#1863=CARTESIAN_POINT('',(92.8,58.8,0.));
#1864=CARTESIAN_POINT('',(92.8,58.8,13.));
#1865=CARTESIAN_POINT('Origin',(87.8,58.8,0.));
#1866=CARTESIAN_POINT('',(87.8,63.8,13.));
#1867=CARTESIAN_POINT('',(87.8,63.8,0.));
#1868=CARTESIAN_POINT('Origin',(87.8,58.8,13.));
#1869=CARTESIAN_POINT('Origin',(42.9,28.4,0.));
#1870=CARTESIAN_POINT('',(80.4,37.9,0.));
#1871=CARTESIAN_POINT('',(80.9,37.4,0.));
#1872=CARTESIAN_POINT('Origin',(80.4,37.4,0.));
#1873=CARTESIAN_POINT('',(55.4,37.9,0.));
#1874=CARTESIAN_POINT('',(54.9,37.9,0.));
#1875=CARTESIAN_POINT('',(54.9,37.4,0.));
#1876=CARTESIAN_POINT('Origin',(55.4,37.4,0.));
#1877=CARTESIAN_POINT('',(54.9,35.4,0.));
#1878=CARTESIAN_POINT('',(54.9,34.9,0.));
#1879=CARTESIAN_POINT('',(55.4,34.9,0.));
#1880=CARTESIAN_POINT('Origin',(55.4,35.4,0.));
#1881=CARTESIAN_POINT('',(80.4,34.9,0.));
#1882=CARTESIAN_POINT('',(80.9,34.9,0.));
#1883=CARTESIAN_POINT('',(80.9,35.4,0.));
#1884=CARTESIAN_POINT('Origin',(80.4,35.4,0.));
#1885=CARTESIAN_POINT('',(80.9,37.9,0.));
#1886=CARTESIAN_POINT('',(80.4,18.4,0.));
#1887=CARTESIAN_POINT('',(80.9,17.9,0.));
#1888=CARTESIAN_POINT('Origin',(80.4,17.9,0.));
#1889=CARTESIAN_POINT('',(46.4,18.4,0.));
#1890=CARTESIAN_POINT('',(45.9,18.4,0.));
#1891=CARTESIAN_POINT('',(45.9,17.9,0.));
#1892=CARTESIAN_POINT('Origin',(46.4,17.9,0.));
#1893=CARTESIAN_POINT('',(45.9,16.4,0.));
#1894=CARTESIAN_POINT('',(45.9,15.9,0.));
#1895=CARTESIAN_POINT('',(46.4,15.9,0.));
#1896=CARTESIAN_POINT('Origin',(46.4,16.4,0.));
#1897=CARTESIAN_POINT('',(80.4,15.9,0.));
#1898=CARTESIAN_POINT('',(80.9,15.9,0.));
#1899=CARTESIAN_POINT('',(80.9,16.4,0.));
#1900=CARTESIAN_POINT('Origin',(80.4,16.4,0.));
#1901=CARTESIAN_POINT('',(80.9,18.4,0.));
#1902=CARTESIAN_POINT('Origin',(55.4,35.4,0.));
#1903=CARTESIAN_POINT('',(54.9,35.4,0.));
#1904=CARTESIAN_POINT('',(55.4,34.9,0.));
#1905=CARTESIAN_POINT('Origin',(54.9,34.9,0.));
#1906=CARTESIAN_POINT('',(54.9,37.4,0.));
#1907=CARTESIAN_POINT('Origin',(80.4,37.4,0.));
#1908=CARTESIAN_POINT('',(80.9,37.4,0.));
#1909=CARTESIAN_POINT('',(80.4,37.9,0.));
#1910=CARTESIAN_POINT('Origin',(80.9,37.9,0.));
#1911=CARTESIAN_POINT('',(80.9,35.4,0.));
#1912=CARTESIAN_POINT('Origin',(80.4,35.4,0.));
#1913=CARTESIAN_POINT('',(80.4,34.9,0.));
#1914=CARTESIAN_POINT('Origin',(80.9,34.9,0.));
#1915=CARTESIAN_POINT('Origin',(55.4,37.4,0.));
#1916=CARTESIAN_POINT('',(55.4,37.9,0.));
#1917=CARTESIAN_POINT('Origin',(54.9,37.9,0.));
#1918=CARTESIAN_POINT('Origin',(46.4,17.9,0.));
#1919=CARTESIAN_POINT('',(46.4,18.4,0.));
#1920=CARTESIAN_POINT('',(45.9,17.9,0.));
#1921=CARTESIAN_POINT('Origin',(45.9,18.4,0.));
#1922=CARTESIAN_POINT('',(80.4,18.4,0.));
#1923=CARTESIAN_POINT('Origin',(46.4,16.4,0.));
#1924=CARTESIAN_POINT('',(45.9,16.4,0.));
#1925=CARTESIAN_POINT('',(46.4,15.9,0.));
#1926=CARTESIAN_POINT('Origin',(45.9,15.9,0.));
#1927=CARTESIAN_POINT('Origin',(80.4,17.9,0.));
#1928=CARTESIAN_POINT('',(80.9,17.9,0.));
#1929=CARTESIAN_POINT('Origin',(80.9,18.4,0.));
#1930=CARTESIAN_POINT('',(80.9,16.4,0.));
#1931=CARTESIAN_POINT('Origin',(80.4,16.4,0.));
#1932=CARTESIAN_POINT('',(80.4,15.9,0.));
#1933=CARTESIAN_POINT('Origin',(80.9,15.9,0.));
#1934=CARTESIAN_POINT('Origin',(2.,54.8,5.));
#1935=CARTESIAN_POINT('',(2.,56.8,5.));
#1936=CARTESIAN_POINT('Origin',(2.,54.8,5.));
#1937=CARTESIAN_POINT('Origin',(2.,54.8,5.));
#1938=CARTESIAN_POINT('Origin',(2.,2.,5.));
#1939=CARTESIAN_POINT('',(2.,0.,5.));
#1940=CARTESIAN_POINT('Origin',(2.,2.,5.));
#1941=CARTESIAN_POINT('Origin',(2.,2.,5.));
#1942=CARTESIAN_POINT('Origin',(2.,2.,0.));
#1943=CARTESIAN_POINT('',(7.32395894344441E-33,2.,13.));
#1944=CARTESIAN_POINT('',(2.,0.,13.));
#1945=CARTESIAN_POINT('Origin',(2.,2.,13.));
#1946=CARTESIAN_POINT('',(2.,0.,0.));
#1947=CARTESIAN_POINT('',(0.,2.,0.));
#1948=CARTESIAN_POINT('Origin',(83.8,54.8,5.));
#1949=CARTESIAN_POINT('',(83.8,56.8,5.));
#1950=CARTESIAN_POINT('Origin',(83.8,54.8,5.));
#1951=CARTESIAN_POINT('',(85.8,54.8,5.));
#1952=CARTESIAN_POINT('Origin',(83.8,54.8,5.));
#1953=CARTESIAN_POINT('Origin',(83.8,54.8,5.));
#1954=CARTESIAN_POINT('Origin',(83.8,2.,5.));
#1955=CARTESIAN_POINT('',(85.8,2.,5.));
#1956=CARTESIAN_POINT('Origin',(83.8,2.,5.));
#1957=CARTESIAN_POINT('',(83.8,0.,5.));
#1958=CARTESIAN_POINT('Origin',(83.8,2.,5.));
#1959=CARTESIAN_POINT('Origin',(83.8,2.,5.));
#1960=CARTESIAN_POINT('Origin',(64.35,2.,5.));
#1961=CARTESIAN_POINT('',(64.35,0.,5.));
#1962=CARTESIAN_POINT('Origin',(83.8,2.,0.));
#1963=CARTESIAN_POINT('',(83.8,0.,13.));
#1964=CARTESIAN_POINT('',(85.8,2.,13.));
#1965=CARTESIAN_POINT('Origin',(83.8,2.,13.));
#1966=CARTESIAN_POINT('',(85.8,2.,0.));
#1967=CARTESIAN_POINT('',(83.8,0.,0.));
#1968=CARTESIAN_POINT('Origin',(83.8,42.6,5.));
#1969=CARTESIAN_POINT('',(85.8,42.6,5.));
#1970=CARTESIAN_POINT('Origin',(83.8,54.8,0.));
#1971=CARTESIAN_POINT('',(85.8,54.8,13.));
#1972=CARTESIAN_POINT('',(83.8,56.8,13.));
#1973=CARTESIAN_POINT('Origin',(83.8,54.8,13.));
#1974=CARTESIAN_POINT('',(83.8,56.8,0.));
#1975=CARTESIAN_POINT('',(85.8,54.8,0.));
#1976=CARTESIAN_POINT('Origin',(21.45,54.8,5.));
#1977=CARTESIAN_POINT('',(21.45,56.8,5.));
#1978=CARTESIAN_POINT('Origin',(2.,54.8,0.));
#1979=CARTESIAN_POINT('',(1.99999999999999,56.8,13.));
#1980=CARTESIAN_POINT('',(2.00676475050377E-31,54.8,13.));
#1981=CARTESIAN_POINT('Origin',(2.,54.8,13.));
#1982=CARTESIAN_POINT('',(0.,54.8,0.));
#1983=CARTESIAN_POINT('',(2.,56.8,0.));
#1984=CARTESIAN_POINT('Origin',(0.,56.8,0.));
#1985=CARTESIAN_POINT('',(85.8,56.8,13.));
#1986=CARTESIAN_POINT('Origin',(85.8,56.8,0.));
#1987=CARTESIAN_POINT('',(85.8,0.,13.));
#1988=CARTESIAN_POINT('Origin',(85.8,0.,0.));
#1989=CARTESIAN_POINT('',(0.,0.,13.));
#1990=CARTESIAN_POINT('Origin',(0.,0.,0.));
#1991=CARTESIAN_POINT('',(2.08000433993821E-31,56.8,13.));
#1992=CARTESIAN_POINT('Origin',(42.9,28.4,13.));
#1993=CARTESIAN_POINT('',(-1.99999999999999,63.8,13.));
#1994=CARTESIAN_POINT('',(-2.,63.8,13.));
#1995=CARTESIAN_POINT('',(-6.99999999999999,58.8,13.));
#1996=CARTESIAN_POINT('Origin',(-2.,58.8,13.));
#1997=CARTESIAN_POINT('',(-6.99999999999999,-2.00000000000001,13.));
#1998=CARTESIAN_POINT('',(-7.,-2.00000000000001,13.));
#1999=CARTESIAN_POINT('Origin',(-2.00000000000001,-2.00000000000001,13.));
#2000=CARTESIAN_POINT('Origin',(-2.00000000000001,-2.00000000000001,0.));
#2001=CARTESIAN_POINT('',(-7.,-2.00000000000001,0.));
#2002=CARTESIAN_POINT('Origin',(-7.,58.8,0.));
#2003=CARTESIAN_POINT('',(-7.,58.8,0.));
#2004=CARTESIAN_POINT('Origin',(-2.,58.8,0.));
#2005=CARTESIAN_POINT('',(-2.,63.8,0.));
#2006=CARTESIAN_POINT('Origin',(87.8,63.8,0.));
#2007=UNCERTAINTY_MEASURE_WITH_UNIT(LENGTH_MEASURE(0.01),#2011,
'DISTANCE_ACCURACY_VALUE',
'Maximum model space distance between geometric entities at asserted c
onnectivities');
#2008=UNCERTAINTY_MEASURE_WITH_UNIT(LENGTH_MEASURE(0.01),#2011,
'DISTANCE_ACCURACY_VALUE',
'Maximum model space distance between geometric entities at asserted c
onnectivities');
#2009=(
GEOMETRIC_REPRESENTATION_CONTEXT(3)
GLOBAL_UNCERTAINTY_ASSIGNED_CONTEXT((#2007))
GLOBAL_UNIT_ASSIGNED_CONTEXT((#2011,#2013,#2014))
REPRESENTATION_CONTEXT('','3D')
);
#2010=(
GEOMETRIC_REPRESENTATION_CONTEXT(3)
GLOBAL_UNCERTAINTY_ASSIGNED_CONTEXT((#2008))
GLOBAL_UNIT_ASSIGNED_CONTEXT((#2011,#2013,#2014))
REPRESENTATION_CONTEXT('','3D')
);
#2011=(
LENGTH_UNIT()
NAMED_UNIT(*)
SI_UNIT(.MILLI.,.METRE.)
);
#2012=(
LENGTH_UNIT()
NAMED_UNIT(*)
SI_UNIT($,.METRE.)
);
#2013=(
NAMED_UNIT(*)
PLANE_ANGLE_UNIT()
SI_UNIT($,.RADIAN.)
);
#2014=(
NAMED_UNIT(*)
SI_UNIT($,.STERADIAN.)
SOLID_ANGLE_UNIT()
);
#2015=SHAPE_DEFINITION_REPRESENTATION(#2016,#2017);
#2016=PRODUCT_DEFINITION_SHAPE('',$,#2019);
#2017=SHAPE_REPRESENTATION('',(#1163),#2009);
#2018=PRODUCT_DEFINITION_CONTEXT('part definition',#2023,'design');
#2019=PRODUCT_DEFINITION('2026-06-03-18-23-16-218','hydropad_top',#2020,
#2018);
#2020=PRODUCT_DEFINITION_FORMATION('',$,#2025);
#2021=PRODUCT_RELATED_PRODUCT_CATEGORY('hydropad_top','hydropad_top',(#2025));
#2022=APPLICATION_PROTOCOL_DEFINITION('international standard',
'automotive_design',2009,#2023);
#2023=APPLICATION_CONTEXT(
'Core Data for Automotive Mechanical Design Process');
#2024=PRODUCT_CONTEXT('part definition',#2023,'mechanical');
#2025=PRODUCT('2026-06-03-18-23-16-218','hydropad_top',$,(#2024));
#2026=PRESENTATION_STYLE_ASSIGNMENT((#2027));
#2027=SURFACE_STYLE_USAGE(.BOTH.,#2028);
#2028=SURFACE_SIDE_STYLE('',(#2029));
#2029=SURFACE_STYLE_FILL_AREA(#2030);
#2030=FILL_AREA_STYLE('Steel - Satin',(#2031));
#2031=FILL_AREA_STYLE_COLOUR('Steel - Satin',#2032);
#2032=COLOUR_RGB('Steel - Satin',0.627450980392157,0.627450980392157,0.627450980392157);
ENDSEC;
END-ISO-10303-21;
