%TF.GenerationSoftware,KiCad,Pcbnew,10.0.2*%
%TF.CreationDate,2026-06-04T19:00:10+09:00*%
%TF.ProjectId,hydropad,68796472-6f70-4616-942e-6b696361645f,rev?*%
%TF.SameCoordinates,Original*%
%TF.FileFunction,Copper,L1,Top*%
%TF.FilePolarity,Positive*%
%FSLAX46Y46*%
G04 Gerber Fmt 4.6, Leading zero omitted, Abs format (unit mm)*
G04 Created by KiCad (PCBNEW 10.0.2) date 2026-06-04 19:00:10*
%MOMM*%
%LPD*%
G01*
G04 APERTURE LIST*
G04 Aperture macros list*
%AMRoundRect*
0 Rectangle with rounded corners*
0 $1 Rounding radius*
0 $2 $3 $4 $5 $6 $7 $8 $9 X,Y pos of 4 corners*
0 Add a 4 corners polygon primitive as box body*
4,1,4,$2,$3,$4,$5,$6,$7,$8,$9,$2,$3,0*
0 Add four circle primitives for the rounded corners*
1,1,$1+$1,$2,$3*
1,1,$1+$1,$4,$5*
1,1,$1+$1,$6,$7*
1,1,$1+$1,$8,$9*
0 Add four rect primitives between the rounded corners*
20,1,$1+$1,$2,$3,$4,$5,0*
20,1,$1+$1,$4,$5,$6,$7,0*
20,1,$1+$1,$6,$7,$8,$9,0*
20,1,$1+$1,$8,$9,$2,$3,0*%
G04 Aperture macros list end*
%TA.AperFunction,ComponentPad*%
%ADD10C,2.200000*%
%TD*%
%TA.AperFunction,ComponentPad*%
%ADD11R,2.000000X2.000000*%
%TD*%
%TA.AperFunction,ComponentPad*%
%ADD12C,2.000000*%
%TD*%
%TA.AperFunction,ComponentPad*%
%ADD13R,3.200000X2.000000*%
%TD*%
%TA.AperFunction,ComponentPad*%
%ADD14RoundRect,0.250000X-0.550000X0.550000X-0.550000X-0.550000X0.550000X-0.550000X0.550000X0.550000X0*%
%TD*%
%TA.AperFunction,ComponentPad*%
%ADD15C,1.600000*%
%TD*%
%TA.AperFunction,ComponentPad*%
%ADD16R,1.700000X1.700000*%
%TD*%
%TA.AperFunction,ComponentPad*%
%ADD17C,1.700000*%
%TD*%
%TA.AperFunction,ComponentPad*%
%ADD18R,1.700000X3.500000*%
%TD*%
%TA.AperFunction,ComponentPad*%
%ADD19O,1.700000X3.600000*%
%TD*%
%TA.AperFunction,ComponentPad*%
%ADD20O,1.700000X3.700000*%
%TD*%
%TA.AperFunction,Conductor*%
%ADD21C,0.500000*%
%TD*%
G04 APERTURE END LIST*
D10*
%TO.P,SW2,1,1_1*%
%TO.N,/ROW_1*%
X114300000Y-76200000D03*
%TO.P,SW2,2,2_2*%
%TO.N,Net-(D2-A)*%
X107950000Y-78740000D03*
%TD*%
%TO.P,SW3,1,1_1*%
%TO.N,/ROW_1*%
X133350000Y-76200000D03*
%TO.P,SW3,2,2_2*%
%TO.N,Net-(D3-A)*%
X127000000Y-78740000D03*
%TD*%
D11*
%TO.P,SW6,A,A_A*%
%TO.N,/ENC_A*%
X123825000Y-98000000D03*
D12*
%TO.P,SW6,B,B_B*%
%TO.N,/ENC_B*%
X123825000Y-103000000D03*
%TO.P,SW6,C,C_C*%
%TO.N,/GND*%
X123825000Y-100500000D03*
D13*
%TO.P,SW6,MP*%
%TO.N,N/C*%
X131325000Y-94900000D03*
X131325000Y-106100000D03*
D12*
%TO.P,SW6,S1,S1_S1*%
%TO.N,/ROW_2*%
X138325000Y-103000000D03*
%TO.P,SW6,S2,S2_S2*%
%TO.N,Net-(D6-A)*%
X138325000Y-98000000D03*
%TD*%
D14*
%TO.P,D1,1,K_1*%
%TO.N,/COL_1*%
X159000000Y-95000000D03*
D15*
%TO.P,D1,2,A_2*%
%TO.N,Net-(D1-A)*%
X159000000Y-102620000D03*
%TD*%
D14*
%TO.P,D3,1,K_1*%
%TO.N,/COL_3*%
X143000000Y-95000000D03*
D15*
%TO.P,D3,2,A_2*%
%TO.N,Net-(D3-A)*%
X143000000Y-102620000D03*
%TD*%
D14*
%TO.P,D6,1,K_1*%
%TO.N,/COL_3*%
X147000000Y-95000000D03*
D15*
%TO.P,D6,2,A_2*%
%TO.N,Net-(D6-A)*%
X147000000Y-102620000D03*
%TD*%
D14*
%TO.P,D4,1,K_1*%
%TO.N,/COL_1*%
X163000000Y-95000000D03*
D15*
%TO.P,D4,2,A_2*%
%TO.N,Net-(D4-A)*%
X163000000Y-102620000D03*
%TD*%
D10*
%TO.P,SW4,1,1_1*%
%TO.N,/ROW_2*%
X95250000Y-95250000D03*
%TO.P,SW4,2,2_2*%
%TO.N,Net-(D4-A)*%
X88900000Y-97790000D03*
%TD*%
%TO.P,SW5,1,1_1*%
%TO.N,/ROW_2*%
X114300000Y-95250000D03*
%TO.P,SW5,2,2_2*%
%TO.N,Net-(D5-A)*%
X107950000Y-97790000D03*
%TD*%
%TO.P,SW1,1,1_1*%
%TO.N,/ROW_1*%
X95250000Y-76200000D03*
%TO.P,SW1,2,2_2*%
%TO.N,Net-(D1-A)*%
X88900000Y-78740000D03*
%TD*%
D16*
%TO.P,DISPLAY,1,Pin_1_1*%
%TO.N,/GND*%
X87000000Y-59000000D03*
D17*
%TO.P,DISPLAY,2,Pin_2_2*%
%TO.N,/3V3*%
X87000000Y-61540000D03*
%TO.P,DISPLAY,3,Pin_3_3*%
%TO.N,/DISP_SCL*%
X87000000Y-64080000D03*
%TO.P,DISPLAY,4,Pin_4_4*%
%TO.N,/DISP_SDA*%
X87000000Y-66620000D03*
%TD*%
D14*
%TO.P,D5,1,K_1*%
%TO.N,/COL_2*%
X155000000Y-95000000D03*
D15*
%TO.P,D5,2,A_2*%
%TO.N,Net-(D5-A)*%
X155000000Y-102620000D03*
%TD*%
D14*
%TO.P,D2,1,K_1*%
%TO.N,/COL_2*%
X151000000Y-95000000D03*
D15*
%TO.P,D2,2,A_2*%
%TO.N,Net-(D2-A)*%
X151000000Y-102620000D03*
%TD*%
D18*
%TO.P,U1,1,PA02_A0_D0_1*%
%TO.N,/ROW_1*%
X160620000Y-89625000D03*
D19*
%TO.P,U1,2,PA4_A1_D1_2*%
%TO.N,/ROW_2*%
X158080000Y-89625000D03*
%TO.P,U1,3,PA10_A2_D2_3*%
%TO.N,/COL_1*%
X155540000Y-89625000D03*
%TO.P,U1,4,PA11_A3_D3_4*%
%TO.N,/COL_2*%
X153000000Y-89625000D03*
%TO.P,U1,5,PA8_A4_D4_SDA_5*%
%TO.N,/DISP_SDA*%
X150460000Y-89625000D03*
%TO.P,U1,6,PA9_A5_D5_SCL_6*%
%TO.N,/DISP_SCL*%
X147920000Y-89625000D03*
%TO.P,U1,7,PB08_A6_D6_TX_7*%
%TO.N,/COL_3*%
X145380000Y-89625000D03*
%TO.P,U1,8,PB09_A7_D7_RX_8*%
%TO.N,/ENC_A*%
X145380000Y-72375000D03*
%TO.P,U1,9,PA7_A8_D8_SCK_9*%
%TO.N,/ENC_B*%
X147920000Y-72375000D03*
%TO.P,U1,10,PA5_A9_D9_MISO_10*%
%TO.N,unconnected-(U1-PA5_A9_D9_MISO-Pad10)*%
X150460000Y-72375000D03*
D20*
%TO.P,U1,11,PA6_A10_D10_MOSI_11*%
%TO.N,unconnected-(U1-PA6_A10_D10_MOSI-Pad11)*%
X153000000Y-72375000D03*
%TO.P,U1,12,3V3_12*%
%TO.N,/3V3*%
X155540000Y-72375000D03*
%TO.P,U1,13,GND_13*%
%TO.N,/GND*%
X158080000Y-72375000D03*
%TO.P,U1,14,5V_14*%
%TO.N,unconnected-(U1-5V-Pad14)*%
X160620000Y-72375000D03*
%TD*%
%TO.N,/COL_1*%
D21*
X159000000Y-95000000D02*
X163000000Y-95000000D01*
X159000000Y-95000000D02*
X155540000Y-91540000D01*
X155540000Y-91540000D02*
X155540000Y-88625000D01*
%TO.N,/COL_2*%
X151000000Y-95000000D02*
X155000000Y-95000000D01*
X151000000Y-95000000D02*
X153000000Y-93000000D01*
X153000000Y-93000000D02*
X153000000Y-88625000D01*
%TO.N,Net-(D3-A)*%
X141750000Y-101370000D02*
X141750000Y-95755534D01*
X127740000Y-81745534D02*
X127740000Y-79480000D01*
X141750000Y-95755534D02*
X127740000Y-81745534D01*
X143000000Y-102620000D02*
X141750000Y-101370000D01*
X127740000Y-79480000D02*
X127000000Y-78740000D01*
%TO.N,/COL_3*%
X145380000Y-93380000D02*
X147000000Y-95000000D01*
X145380000Y-88625000D02*
X145380000Y-93380000D01*
X147000000Y-95000000D02*
X143000000Y-95000000D01*
%TO.N,Net-(D4-A)*%
X90210000Y-99100000D02*
X90210000Y-101365534D01*
X88900000Y-97790000D02*
X90210000Y-99100000D01*
X96394466Y-107550000D02*
X158070000Y-107550000D01*
X90210000Y-101365534D02*
X96394466Y-107550000D01*
X158070000Y-107550000D02*
X163000000Y-102620000D01*
%TO.N,Net-(D5-A)*%
X155000000Y-102620000D02*
X153050000Y-104570000D01*
X109260000Y-99100000D02*
X107950000Y-97790000D01*
X109260000Y-101365534D02*
X109260000Y-99100000D01*
X153050000Y-104570000D02*
X112464466Y-104570000D01*
X112464466Y-104570000D02*
X109260000Y-101365534D01*
%TO.N,Net-(D6-A)*%
X138325000Y-99712767D02*
X138325000Y-98000000D01*
X142482233Y-103870000D02*
X138325000Y-99712767D01*
X147000000Y-102620000D02*
X145750000Y-103870000D01*
X145750000Y-103870000D02*
X142482233Y-103870000D01*
%TO.N,/ROW_1*%
X133350000Y-76200000D02*
X148195000Y-76200000D01*
X148195000Y-76200000D02*
X160620000Y-88625000D01*
%TO.N,/ROW_2*%
X115400000Y-96350000D02*
X131675000Y-96350000D01*
X114300000Y-95250000D02*
X115400000Y-96350000D01*
X131675000Y-96350000D02*
X138325000Y-103000000D01*
X95250000Y-95250000D02*
X114300000Y-95250000D01*
%TO.N,/GND*%
X158080000Y-73375000D02*
X158080000Y-71080000D01*
%TO.N,/3V3*%
X155540000Y-72076522D02*
X155540000Y-73375000D01*
%TO.N,/DISP_SCL*%
X138075000Y-78780000D02*
X147920000Y-88625000D01*
X87000000Y-64080000D02*
X117145534Y-64080000D01*
X147920000Y-88625000D02*
X147920000Y-88577968D01*
X147920000Y-87920000D02*
X147920000Y-88625000D01*
X131845534Y-78780000D02*
X138075000Y-78780000D01*
X117145534Y-64080000D02*
X131845534Y-78780000D01*
%TO.N,/DISP_SDA*%
X132957968Y-78000000D02*
X112657968Y-57700000D01*
X139835000Y-78000000D02*
X132957968Y-78000000D01*
X85700000Y-65320000D02*
X87000000Y-66620000D01*
X85700000Y-57700000D02*
X85700000Y-65320000D01*
X150460000Y-88625000D02*
X139835000Y-78000000D01*
X112657968Y-57700000D02*
X85700000Y-57700000D01*
%TD*%
M02*
