M48
; DRILL file KiCad 10.0.2 date 2026-06-04T19:00:11
; FORMAT={-:-/ absolute / metric / decimal}
; #@! TF.CreationDate,2026-06-04T19:00:11+09:00
; #@! TF.GenerationSoftware,Kicad,Pcbnew,10.0.2
; #@! TF.FileFunction,Plated,1,2,PTH
FMAT,2
METRIC
; #@! TA.AperFunction,Plated,PTH,ComponentDrill
T1C0.800
; #@! TA.AperFunction,Plated,PTH,ComponentDrill
T2C1.000
; #@! TA.AperFunction,Plated,PTH,ComponentDrill
T3C1.500
%
G90
G05
T1
X143.0Y-95.0
X143.0Y-102.62
X147.0Y-95.0
X147.0Y-102.62
X151.0Y-95.0
X151.0Y-102.62
X155.0Y-95.0
X155.0Y-102.62
X159.0Y-95.0
X159.0Y-102.62
X163.0Y-95.0
X163.0Y-102.62
T2
X87.0Y-59.0
X87.0Y-61.54
X87.0Y-64.08
X87.0Y-66.62
X123.825Y-98.0
X123.825Y-100.5
X123.825Y-103.0
X138.325Y-98.0
X138.325Y-103.0
X145.38Y-73.375
X145.38Y-88.625
X147.92Y-73.375
X147.92Y-88.625
X150.46Y-73.375
X150.46Y-88.625
X153.0Y-73.375
X153.0Y-88.625
X155.54Y-73.375
X155.54Y-88.625
X158.08Y-73.375
X158.08Y-88.625
X160.62Y-73.375
X160.62Y-88.625
T3
X88.9Y-78.74
X88.9Y-97.79
X95.25Y-76.2
X95.25Y-95.25
X107.95Y-78.74
X107.95Y-97.79
X114.3Y-76.2
X114.3Y-95.25
X127.0Y-78.74
X133.35Y-76.2
T3
G00X130.675Y-94.9
M15
G01X131.975Y-94.9
M16
G05
G00X130.675Y-106.1
M15
G01X131.975Y-106.1
M16
G05
M30
